<svg width="40" height="40" viewBox="0 0 40 40" fill="none" xmlns="http://www.w3.org/2000/svg">
<g clip-path="url(#clip0_1_1084)">
<path d="M40 18.5816C40 20.5879 39.1883 22.4055 37.8758 23.7206C36.5633 25.0356 34.7492 25.8497 32.7469 25.8497H25.668L21.7805 23.557L17.1531 25.8497H7.25313C3.24766 25.8497 0.889852 22.4141 0.889852 18.4008C0.889852 16.7429 0.555477 15.3942 1.48985 14.1715C1.61798 14.0024 1.75391 13.8403 1.8961 13.6846C3.23907 16.2161 5.90001 17.9445 8.95626 17.9445H31.0453C34.1008 17.9445 36.7617 16.2153 38.1055 13.6846C38.2469 13.8403 38.3828 14.0024 38.5117 14.1715C39.4461 15.3942 40.0008 16.9229 40.0008 18.5816H40Z" fill="#FEC68E"/>
<path d="M14.332 17.791H25.668V25.8497H14.332V17.791Z" fill="#FEBF80"/>
<path d="M14.332 17.791H16.1133V25.8497H14.332V17.791Z" fill="#FEB164"/>
<path d="M9.03437 25.849H7.25312C3.24687 25.849 0 22.5949 0 18.5816C0 16.9237 0.554687 15.3942 1.48906 14.1715C1.61719 14.0032 1.75313 13.8411 1.89531 13.6846C2.13672 14.1394 2.42109 14.5691 2.74141 14.9668C2.12969 16.0321 1.78125 17.2658 1.78125 18.5816C1.78125 22.5949 5.02812 25.849 9.03359 25.849H9.03437Z" fill="#FEB770"/>
<path d="M36.532 12.382C36.3445 12.267 36.1008 12.3672 36.0469 12.5809C35.8164 13.4998 35.3399 14.3202 34.6922 14.9707C33.7586 15.9061 32.4688 16.4846 31.0445 16.4846H8.95548C6.77345 16.4846 4.90782 15.1264 4.15392 13.2079C4.07423 13.0051 3.46329 13.4654 3.40939 13.2517C3.35548 13.038 3.68361 12.9034 3.49611 13.0184C3.00626 13.319 2.81017 13.2807 2.40548 13.6854C2.17814 13.9131 1.68439 13.9155 1.48907 14.1715C2.63829 17.1812 5.55236 19.3237 8.95548 19.3237H31.0445C34.4477 19.3237 37.3617 17.1812 38.5109 14.1715C37.968 13.4599 37.2969 12.8517 36.532 12.382Z" fill="#FFDDBB"/>
<path d="M3.95314 12.5817C3.89923 12.368 3.65704 12.2662 3.46954 12.3805C2.9797 12.6811 2.52892 13.038 2.12423 13.4427C1.89689 13.6705 1.68439 13.914 1.48907 14.1707C1.70861 14.7468 1.99376 15.2909 2.33361 15.7942C2.70079 14.9081 3.23907 14.1104 3.90548 13.4427C3.98673 13.3613 4.06876 13.283 4.15392 13.2063C4.07423 13.0036 4.00704 12.7946 3.95314 12.5809V12.5817Z" fill="#FED6AE"/>
<path d="M17.3164 23.5805C17.1664 23.5805 17.0164 23.5233 16.9023 23.4083C16.6734 23.1789 16.6734 22.8071 16.9023 22.5777L31.5297 7.92177C31.7586 7.69242 32.1297 7.69242 32.3586 7.92177C32.5875 8.15113 32.5875 8.52295 32.3586 8.7523L17.7305 23.4091C17.6164 23.5233 17.4664 23.5813 17.3164 23.5813V23.5805Z" fill="#FFDEBE"/>
<path d="M17.5766 27.7902L13.1953 32.1793C13.0734 32.3022 12.8758 32.3022 12.7531 32.1793L8.14689 27.564C8.02501 27.4419 8.02501 27.2439 8.14689 27.1217L12.5281 22.7319C13.7781 21.4787 15.8055 21.4787 17.0555 22.7319L17.5211 23.1977C17.5211 23.1977 17.5227 23.1992 17.5227 23.2L17.5766 23.2532C18.8266 24.5065 18.8266 26.537 17.5766 27.7902Z" fill="#FFDDBB"/>
<path d="M17.8649 23.6047C16.6141 22.71 14.8656 22.8251 13.743 23.9491L9.36251 28.339C9.23986 28.4611 9.23986 28.6591 9.36251 28.782L8.14689 27.564C8.02501 27.4419 8.02501 27.2439 8.14689 27.1217L12.5281 22.7319C13.7781 21.4787 15.8055 21.4787 17.0555 22.7319L17.5211 23.1977C17.5211 23.1977 17.5227 23.1992 17.5227 23.2C17.6508 23.3276 17.7641 23.463 17.8649 23.6047Z" fill="#FED6AE"/>
</g>
<defs>
<clipPath id="clip0_1_1084">
<rect width="40" height="40" fill="white"/>
</clipPath>
</defs>
</svg>
