<svg width="41" height="40" viewBox="0 0 41 40" fill="none" xmlns="http://www.w3.org/2000/svg">
<g clip-path="url(#clip0_1_1055)">
<path d="M2.65078 9.41333H0.785156C0.420312 9.41333 0.125 9.70864 0.125 10.0735V34.2157C0.125 34.5797 0.420312 34.8758 0.785156 34.8758H18.4813C18.5742 35.2813 18.9359 35.5844 19.3703 35.5844H21.0117C21.4453 35.5844 21.8078 35.2813 21.9008 34.8758H39.4656C39.8305 34.8758 40.1258 34.5805 40.1258 34.2157V10.0735C40.1258 9.70864 39.8305 9.41333 39.4656 9.41333H37.6V32.6641C37.6 32.9141 37.3641 33.0993 37.1148 33.0469C35.5664 32.7196 33.9672 32.1125 31.8844 31.0391C27.5812 28.8219 23.9672 30.0126 21.925 31.1555C21.8461 31.204 20.8273 31.7602 20.1266 32.4243C19.7094 32.0266 18.8812 31.461 18.4594 31.2305C16.443 30.0665 12.7656 28.7743 8.36875 31.0391C6.28594 32.1125 4.68672 32.7196 3.13828 33.0469C2.88828 33.1 2.65313 32.9141 2.65313 32.6641V9.41333" fill="#4DB2B4"/>
<path d="M2.53984 9.41333H0.785156C0.420312 9.41333 0.125 9.70864 0.125 10.0735V34.2157C0.125 34.5797 0.420312 34.8758 0.785156 34.8758H2.53984V9.41333Z" fill="#2DAEB1"/>
<path d="M37.3555 31.261C35.807 30.9258 33.9664 30.3039 31.8836 29.2063C25.1649 25.6633 20.0594 30.6586 20.0594 30.6586L20.1258 32.8266C20.1258 32.8266 25.1649 27.9797 31.8836 31.4414C33.9664 32.5149 35.807 33.1219 37.3555 33.4492C37.6055 33.5024 37.8406 33.3164 37.8406 33.0664V30.8696C37.8406 31.125 37.6047 31.3149 37.3555 31.261Z" fill="#D5EDED"/>
<path d="M22.5922 28.9734C20.9945 29.7421 20.0586 30.6578 20.0586 30.6578L20.125 32.8257C20.125 32.8257 21.0336 31.9523 22.5922 31.2117V28.9734Z" fill="#BFE4E4"/>
<path d="M8.36719 29.2062C6.28438 30.3047 4.44375 30.9265 2.89531 31.2609C2.64531 31.3148 2.41016 31.125 2.41016 30.8695V33.0664C2.41016 33.3164 2.64609 33.5015 2.89531 33.4492C4.44375 33.1219 6.28438 32.5148 8.36719 31.4414C15.0859 27.9797 20.125 32.8265 20.125 32.8265V30.6242C20.125 30.6242 15.0859 25.664 8.36719 29.207V29.2062Z" fill="#D5EDED"/>
<path d="M4.82421 30.7312C4.13905 30.9578 3.49452 31.1312 2.89452 31.2617C2.64452 31.3156 2.40936 31.1257 2.40936 30.8703V33.0671C2.40936 33.3171 2.6453 33.5023 2.89452 33.45C3.49452 33.3234 4.13905 33.1539 4.82421 32.932V30.732V30.7312Z" fill="#BFE4E4"/>
<path d="M37.5211 7.81955C35.9391 7.49377 34.0406 6.86721 31.8828 5.72971C25.1641 2.18674 20.0891 7.18205 20.0891 7.18205L20.125 30.6242C20.125 30.6242 25.1641 25.6641 31.8828 29.2071C33.9656 30.3055 35.8062 30.9274 37.3547 31.2617C37.6047 31.3156 37.8398 31.1258 37.8398 30.8703V8.21096C37.8398 8.02111 37.707 7.85783 37.5203 7.81955H37.5211Z" fill="#E8F5F5"/>
<path d="M22.5922 5.50549C21.0125 6.27268 20.0891 7.18127 20.0891 7.18127L20.125 30.6242C20.125 30.6242 21.0336 29.7305 22.5922 28.9727V5.50549Z" fill="#D5EDED"/>
<path d="M34.3695 12.4304C33.4562 12.0843 32.525 11.6617 31.6015 11.175C27.9851 9.26793 24.8898 9.98043 22.9304 10.914C22.6297 11.0578 22.2695 10.9296 22.1258 10.6289C21.982 10.3281 22.1101 9.96793 22.4109 9.82418C24.6203 8.77183 28.1054 7.96637 32.164 10.107C33.0437 10.5711 33.9297 10.9734 34.7969 11.3015C35.1086 11.4195 35.2656 11.7679 35.1469 12.0796C35.0289 12.3914 34.6804 12.5484 34.3687 12.4296L34.3695 12.4304Z" fill="#D5EDED"/>
<path d="M34.3695 15.4133C33.4562 15.0672 32.525 14.6446 31.6015 14.1579C27.9851 12.2508 24.8898 12.9633 22.9304 13.8969C22.6297 14.0407 22.2695 13.9126 22.1258 13.6118C21.982 13.311 22.1101 12.9508 22.4109 12.8071C24.6203 11.7547 28.1054 10.9493 32.164 13.0899C33.0437 13.554 33.9297 13.9563 34.7969 14.2844C35.1086 14.4024 35.2656 14.7508 35.1469 15.0626C35.0289 15.3743 34.6804 15.5313 34.3687 15.4126L34.3695 15.4133Z" fill="#D5EDED"/>
<path d="M34.3695 18.3961C33.4562 18.05 32.525 17.6274 31.6015 17.1407C27.9851 15.2336 24.8898 15.9461 22.9304 16.8797C22.6297 17.0227 22.2695 16.8953 22.1258 16.5946C21.982 16.2938 22.1101 15.9336 22.4109 15.7899C24.6203 14.7375 28.1054 13.9321 32.164 16.0727C33.0437 16.5368 33.9297 16.9383 34.7969 17.2672C35.1086 17.3852 35.2656 17.7336 35.1469 18.0453C35.0289 18.3571 34.6804 18.5141 34.3687 18.3953L34.3695 18.3961Z" fill="#D5EDED"/>
<path d="M34.3695 21.3796C33.4562 21.0336 32.525 20.6109 31.6015 20.1242C27.9851 18.2171 24.8898 18.9296 22.9304 19.8632C22.6297 20.007 22.2695 19.8789 22.1258 19.5781C21.982 19.2773 22.1101 18.9171 22.4109 18.7734C24.6203 17.7211 28.1054 16.9156 32.164 19.0562C33.0445 19.5203 33.9297 19.9226 34.7969 20.2507C35.1086 20.3687 35.2656 20.7171 35.1469 21.0289C35.0289 21.3406 34.6804 21.4976 34.3687 21.3789L34.3695 21.3796Z" fill="#D5EDED"/>
<path d="M34.3695 24.3626C33.457 24.0165 32.525 23.5938 31.6015 23.1071C27.9851 21.2001 24.8898 21.9126 22.9304 22.8461C22.6297 22.9891 22.2695 22.8618 22.1258 22.561C21.982 22.2602 22.1101 21.9001 22.4109 21.7563C24.6203 20.704 28.1054 19.8985 32.164 22.0391C33.0445 22.5032 33.9304 22.9055 34.7969 23.2337C35.1086 23.3516 35.2656 23.7001 35.1469 24.0118C35.0289 24.3227 34.6812 24.4805 34.3687 24.3626H34.3695Z" fill="#D5EDED"/>
<path d="M34.3695 27.3453C33.4562 26.9993 32.525 26.5766 31.6015 26.0899C27.9851 24.1828 24.8898 24.8953 22.9304 25.8289C22.6297 25.9719 22.2695 25.8446 22.1258 25.5438C21.982 25.2422 22.1101 24.8828 22.4109 24.7391C24.6195 23.6868 28.1054 22.8813 32.164 25.0219C33.0437 25.486 33.9297 25.8875 34.7969 26.2164C35.1086 26.3352 35.2656 26.6836 35.1476 26.9946C35.0289 27.3063 34.6804 27.4633 34.3695 27.3453Z" fill="#D5EDED"/>
<path d="M2.72891 7.81956C4.31094 7.49378 6.20937 6.86722 8.36719 5.72972C15.0859 2.18675 20.125 7.14691 20.125 7.14691V30.6242C20.125 30.6242 15.0859 25.6641 8.36719 29.2071C6.28438 30.3055 4.44375 30.9274 2.89531 31.2617C2.64531 31.3157 2.41016 31.1258 2.41016 30.8703V8.21097C2.41016 8.02112 2.54297 7.85784 2.72969 7.81956H2.72891Z" fill="#E8F5F5"/>
<path d="M4.82421 7.25317C4.07577 7.50161 3.37577 7.68599 2.72889 7.8188C2.54296 7.85708 2.40936 8.02036 2.40936 8.21021V30.8696C2.40936 31.125 2.6453 31.3149 2.89452 31.261C3.49452 31.1313 4.13905 30.9579 4.82421 30.7305V7.25317Z" fill="#D5EDED"/>
<path d="M5.23357 12.0796C5.1156 11.7679 5.27263 11.4195 5.58435 11.3015C6.45154 10.9726 7.33748 10.5711 8.21716 10.107C12.2758 7.96637 15.7617 8.77183 17.9703 9.82418C18.2719 9.96793 18.3992 10.3281 18.2554 10.6289C18.1125 10.9296 17.7515 11.0578 17.4508 10.914C15.4906 9.98043 12.3961 9.26793 8.77966 11.175C7.85623 11.6617 6.92498 12.0843 6.01169 12.4304C5.69998 12.5484 5.35154 12.3921 5.23357 12.0804V12.0796Z" fill="#D5EDED"/>
<path d="M5.23357 15.0625C5.1156 14.7508 5.27263 14.4023 5.58435 14.2844C6.45154 13.9555 7.33748 13.5539 8.21716 13.0898C12.2758 10.95 15.7617 11.7547 17.9703 12.807C18.2719 12.9508 18.3992 13.3109 18.2554 13.6117C18.1125 13.9125 17.7515 14.0406 17.4508 13.8969C15.4906 12.9633 12.3961 12.2508 8.77966 14.1578C7.85623 14.6445 6.92498 15.0672 6.01169 15.4133C5.69998 15.5312 5.35154 15.375 5.23357 15.0625Z" fill="#D5EDED"/>
<path d="M5.23357 18.0461C5.1156 17.7344 5.27263 17.3859 5.58435 17.268C6.45154 16.939 7.33748 16.5375 8.21716 16.0734C12.2758 13.9328 15.7617 14.7383 17.9703 15.7906C18.2719 15.9344 18.3992 16.2945 18.2554 16.5953C18.1125 16.8961 17.7515 17.0242 17.4508 16.8805C15.4906 15.9469 12.3961 15.2344 8.77966 17.1414C7.85623 17.6281 6.92498 18.0508 6.01169 18.3969C5.69998 18.5148 5.35154 18.3578 5.23357 18.0469V18.0461Z" fill="#D5EDED"/>
<path d="M5.23357 21.0289C5.1156 20.7171 5.27263 20.3687 5.58435 20.2507C6.45154 19.9218 7.33748 19.5203 8.21716 19.0562C12.2758 16.9156 15.7617 17.7211 17.9703 18.7734C18.2719 18.9171 18.3992 19.2773 18.2554 19.5781C18.1125 19.8789 17.7515 20.007 17.4508 19.8632C15.4906 18.9296 12.3961 18.2171 8.77966 20.1242C7.85623 20.6109 6.92498 21.0336 6.01169 21.3796C5.69998 21.4976 5.35154 21.3406 5.23357 21.0289Z" fill="#D5EDED"/>
<path d="M5.23357 24.0118C5.1156 23.7001 5.27263 23.3516 5.58435 23.2337C6.45076 22.9055 7.3367 22.5032 8.21716 22.0391C12.2758 19.8985 15.7617 20.704 17.9703 21.7563C18.2719 21.9001 18.3992 22.2602 18.2554 22.561C18.1125 22.8618 17.7515 22.9899 17.4508 22.8461C15.4906 21.9126 12.3961 21.2001 8.77966 23.1071C7.85623 23.5946 6.92419 24.0165 6.01169 24.3626C5.69998 24.4813 5.35154 24.3235 5.23357 24.0126V24.0118Z" fill="#D5EDED"/>
<path d="M5.23359 26.9946C5.11484 26.6828 5.27265 26.3344 5.58359 26.2164C6.45078 25.8875 7.33672 25.486 8.2164 25.0219C12.2758 22.8813 15.7609 23.6868 17.9695 24.7391C18.2703 24.8828 18.3984 25.243 18.2547 25.5438C18.1109 25.8453 17.7508 25.9727 17.45 25.8289C15.4906 24.8953 12.3953 24.1828 8.7789 26.0899C7.85547 26.5766 6.92422 26.9993 6.01093 27.3453C5.69922 27.4641 5.35078 27.3071 5.23281 26.9953L5.23359 26.9946Z" fill="#D5EDED"/>
<path d="M20.6234 32.4094C20.3281 32.636 19.9188 32.6336 19.6234 32.4071C19.343 32.1922 18.95 31.9156 18.4578 31.6313V34.6703C18.4578 35.1742 18.8664 35.5828 19.3703 35.5828H21.0117C21.5156 35.5828 21.9242 35.1742 21.9242 34.6703V31.5563C21.3688 31.8672 20.9297 32.1742 20.6242 32.4086L20.6234 32.4094Z" fill="#2DAEB1"/>
<path d="M20.8594 34.6711V32.2344C20.7742 32.2961 20.6945 32.3547 20.6234 32.4094C20.3281 32.636 19.9188 32.6336 19.6234 32.4071C19.343 32.1922 18.95 31.9157 18.4578 31.6321V34.6711C18.4578 35.175 18.8664 35.5836 19.3703 35.5836H21.0117C21.1477 35.5836 21.2758 35.5532 21.3922 35.5C21.0781 35.3563 20.8602 35.0399 20.8602 34.6711H20.8594Z" fill="#2BA4A6"/>
</g>
<defs>
<clipPath id="clip0_1_1055">
<rect width="40" height="40" fill="white" transform="translate(0.125)"/>
</clipPath>
</defs>
</svg>
