<svg width="25" height="24" viewBox="0 0 25 24" fill="none" xmlns="http://www.w3.org/2000/svg">
<path d="M7.65493 3C5.44774 3 3.63086 4.793 3.63086 7V9L3.66181 17C3.66181 19.206 5.44973 21 7.65493 21H17.6377C19.8429 21 21.6309 19.209 21.6309 17L21.5999 9V7C21.5999 4.789 19.8409 3 17.6377 3C16.6027 3 8.63491 3.00002 7.65493 3ZM7.65493 5C8.61641 5 16.6027 4.98582 17.6377 5C18.7329 5 19.6033 5.888 19.6033 7V8C17.6827 8 7.54811 8 5.62742 8V7C5.62742 5.903 6.54485 5 7.65493 5ZM5.62742 10C7.54811 10 17.6827 10 19.6033 10L19.6343 17C19.6343 18.101 18.7408 19 17.6377 19H7.65493C6.55283 19 5.65837 18.105 5.65837 17L5.62742 10Z" fill="#64748B" fill-opacity="0.4"/>
<path fill-rule="evenodd" clip-rule="evenodd" d="M9.625 3C9.625 2.44772 9.17729 2 8.625 2C8.07271 2 7.625 2.44772 7.625 3V5C7.625 5.55228 8.07271 6 8.625 6C9.17729 6 9.625 5.55228 9.625 5V3ZM17.625 3C17.625 2.44772 17.1773 2 16.625 2C16.0727 2 15.625 2.44772 15.625 3V5C15.625 5.55228 16.0727 6 16.625 6C17.1773 6 17.625 5.55228 17.625 5V3ZM9.625 13C9.625 13.5523 9.17729 14 8.625 14C8.07271 14 7.625 13.5523 7.625 13C7.625 12.4477 8.07271 12 8.625 12C9.17729 12 9.625 12.4477 9.625 13ZM8.625 17C9.17729 17 9.625 16.5523 9.625 16C9.625 15.4477 9.17729 15 8.625 15C8.07271 15 7.625 15.4477 7.625 16C7.625 16.5523 8.07271 17 8.625 17ZM13.625 13C13.625 13.5523 13.1773 14 12.625 14C12.0727 14 11.625 13.5523 11.625 13C11.625 12.4477 12.0727 12 12.625 12C13.1773 12 13.625 12.4477 13.625 13ZM12.625 17C13.1773 17 13.625 16.5523 13.625 16C13.625 15.4477 13.1773 15 12.625 15C12.0727 15 11.625 15.4477 11.625 16C11.625 16.5523 12.0727 17 12.625 17ZM17.625 13C17.625 13.5523 17.1773 14 16.625 14C16.0727 14 15.625 13.5523 15.625 13C15.625 12.4477 16.0727 12 16.625 12C17.1773 12 17.625 12.4477 17.625 13ZM16.625 17C17.1773 17 17.625 16.5523 17.625 16C17.625 15.4477 17.1773 15 16.625 15C16.0727 15 15.625 15.4477 15.625 16C15.625 16.5523 16.0727 17 16.625 17Z" fill="#64748B"/>
</svg>
