<svg width="28" height="28" viewBox="0 0 28 28" fill="none" xmlns="http://www.w3.org/2000/svg">
<path d="M8.16666 3.5C5.58938 3.5 3.49988 5.5639 3.5 8.1095L3.5 9.33333H24.5L24.5 8.1095C24.5 5.5639 22.4106 3.5 19.8333 3.5C18.8587 3.50002 12.184 3.50001 9.33333 3.5C8.77181 3.5 8.35866 3.5 8.16666 3.5Z" fill="#64748B" fill-opacity="0.4"/>
<path fill-rule="evenodd" clip-rule="evenodd" d="M9.33333 2.33331C9.97767 2.33331 10.5 2.85565 10.5 3.49998V5.83331C10.5 6.47765 9.97767 6.99998 9.33333 6.99998C8.689 6.99998 8.16667 6.47765 8.16667 5.83331V3.49998C8.16667 2.85565 8.689 2.33331 9.33333 2.33331ZM3.5 11.6666V19.8333C3.5 22.4105 5.5895 24.5 8.16667 24.5H19.8333C22.4105 24.5 24.5 22.4105 24.5 19.8333V11.6666H3.5ZM17.864 14C17.9748 14 18.0962 14.035 18.193 14.0723C18.2898 14.1108 18.375 14.1516 18.4473 14.2193C18.5208 14.2858 18.5523 14.3488 18.5943 14.4375C18.6352 14.5261 18.6667 14.6288 18.6667 14.7291C18.6667 14.8295 18.6352 14.9321 18.5943 15.0208C18.5523 15.1095 18.5208 15.1725 18.4473 15.239C18.375 15.3067 18.2898 15.3836 18.193 15.4221C18.1014 15.4586 17.9878 15.4584 17.8819 15.4583H17.8819L17.864 15.4583L17.8463 15.4583C17.745 15.4584 17.6639 15.4585 17.5723 15.4221C17.4767 15.3836 17.3915 15.3067 17.318 15.239C17.2445 15.1725 17.1768 15.1095 17.136 15.0208C17.094 14.9321 17.0625 14.8295 17.0625 14.7291C17.0625 14.6288 17.094 14.5261 17.136 14.4375C17.1768 14.3488 17.2445 14.2858 17.318 14.2193C17.3915 14.1516 17.4767 14.1108 17.5723 14.0723L17.5859 14.0671C17.6772 14.0318 17.7595 14 17.864 14ZM9.33333 14.4013H12.7237V15.6041H10.864V16.5153H12.5417V17.7193H10.864V19.8333H9.33333V14.4013ZM16.261 16.0778H16.3695C16.3838 16.0778 16.3982 16.0768 16.4129 16.0758H16.4129C16.4438 16.0737 16.4767 16.0715 16.5153 16.0778V17.318C16.3275 17.2316 16.1525 17.2083 15.932 17.2083C15.603 17.2083 15.3312 17.2841 15.1667 17.4638C15.0022 17.6435 14.9473 17.9212 14.9473 18.2653V19.8333H13.5263V16.1513H14.9473V16.7346C15.1002 16.5141 15.2752 16.3776 15.4945 16.261C15.715 16.1431 15.967 16.0778 16.261 16.0778ZM17.1722 16.1513H18.5943V19.8333H17.1722V16.1513ZM19.8333 3.49998C19.8333 2.85565 19.311 2.33331 18.6667 2.33331C18.0223 2.33331 17.5 2.85565 17.5 3.49998V5.83331C17.5 6.47765 18.0223 6.99998 18.6667 6.99998C19.311 6.99998 19.8333 6.47765 19.8333 5.83331V3.49998Z" fill="#64748B"/>
</svg>
