<svg width="21" height="20" viewBox="0 0 21 20" fill="none" xmlns="http://www.w3.org/2000/svg">
<path d="M10.4994 1.6665C9.36693 1.6665 8.38452 2.20984 7.60868 3.02067C6.48018 2.99567 5.38202 3.29401 4.58785 4.08818C3.79377 4.88234 3.49477 5.98068 3.52018 7.10901C2.7091 7.88484 2.16602 8.86734 2.16602 9.99984C2.16602 11.1323 2.7091 12.1148 3.52018 12.8907C3.49477 14.019 3.79377 15.1173 4.58785 15.9115C5.3821 16.7057 6.48018 17.0048 7.60868 16.979C8.38452 17.7898 9.36693 18.3332 10.4994 18.3332C11.6318 18.3332 12.6142 17.7898 13.39 16.979C14.5185 17.004 15.6167 16.7057 16.4109 15.9115C17.2049 15.1173 17.5039 14.019 17.4785 12.8907C18.2896 12.1148 18.8327 11.1323 18.8327 9.99984C18.8327 8.86734 18.2896 7.88484 17.4785 7.10901C17.5039 5.98068 17.2049 4.88234 16.4109 4.08818C15.6166 3.29401 14.5185 2.99484 13.39 3.02067C12.6142 2.20984 11.6318 1.6665 10.4994 1.6665Z" fill="#F58025" fill-opacity="0.4"/>
<path fill-rule="evenodd" clip-rule="evenodd" d="M13.5886 7.74408C13.914 8.06951 13.914 8.59715 13.5886 8.92259L10.2553 12.2559C9.92983 12.5814 9.4022 12.5814 9.07676 12.2559L7.41009 10.5893C7.08466 10.2638 7.08466 9.73618 7.41009 9.41074C7.73553 9.08531 8.26317 9.08531 8.5886 9.41074L9.66602 10.4882L12.4101 7.74408C12.7355 7.41864 13.2632 7.41864 13.5886 7.74408Z" fill="#F58025"/>
</svg>
