<svg width="20" height="20" viewBox="0 0 20 20" fill="none" xmlns="http://www.w3.org/2000/svg">
<path d="M10 1.66669C8.86758 1.66669 7.88517 2.21002 7.10933 3.02085C5.98083 2.99585 4.88267 3.29419 4.0885 4.08836C3.29441 4.88253 2.99541 5.98086 3.02083 7.10919C2.20975 7.88503 1.66666 8.86752 1.66666 10C1.66666 11.1325 2.20975 12.115 3.02083 12.8908C2.99541 14.0192 3.29441 15.1175 4.0885 15.9117C4.88275 16.7058 5.98083 17.005 7.10933 16.9792C7.88517 17.79 8.86758 18.3334 10 18.3334C11.1324 18.3334 12.1148 17.79 12.8907 16.9792C14.0192 17.0042 15.1173 16.7058 15.9115 15.9117C16.7056 15.1175 17.0046 14.0192 16.9792 12.8908C17.7903 12.115 18.3333 11.1325 18.3333 10C18.3333 8.86752 17.7903 7.88503 16.9792 7.10919C17.0046 5.98086 16.7056 4.88253 15.9115 4.08836C15.1173 3.29419 14.0192 2.99502 12.8907 3.02085C12.1148 2.21002 11.1324 1.66669 10 1.66669Z" fill="#4A43EC" fill-opacity="0.4"/>
<path fill-rule="evenodd" clip-rule="evenodd" d="M13.0893 7.74408C13.4147 8.06951 13.4147 8.59715 13.0893 8.92259L9.75592 12.2559C9.43048 12.5814 8.90285 12.5814 8.57741 12.2559L6.91074 10.5893C6.5853 10.2638 6.5853 9.73618 6.91074 9.41074C7.23618 9.08531 7.76382 9.08531 8.08925 9.41074L9.16666 10.4882L11.9107 7.74408C12.2362 7.41864 12.7638 7.41864 13.0893 7.74408Z" fill="#4A43EC"/>
</svg>
