<svg width="28" height="28" viewBox="0 0 28 28" fill="none" xmlns="http://www.w3.org/2000/svg">
<path d="M14.0165 2.33203C7.57325 2.33203 2.34985 7.5552 2.34985 13.9987C2.34985 20.4422 7.57314 25.6654 14.0165 25.6654C20.4598 25.6654 25.6832 20.4422 25.6832 13.9987C25.6832 7.5552 20.4598 2.33203 14.0165 2.33203Z" fill="#64748B" fill-opacity="0.4"/>
<path fill-rule="evenodd" clip-rule="evenodd" d="M14 7C14.6443 7 15.1667 7.52233 15.1667 8.16667V13.5168L18.325 16.675C18.7806 17.1307 18.7806 17.8693 18.325 18.325C17.8693 18.7806 17.1306 18.7806 16.675 18.325L13.175 14.825C12.9562 14.6062 12.8333 14.3094 12.8333 14V8.16667C12.8333 7.52233 13.3557 7 14 7Z" fill="#64748B"/>
</svg>
