<svg width="41" height="40" viewBox="0 0 41 40" fill="none" xmlns="http://www.w3.org/2000/svg">
<g clip-path="url(#clip0_1_986)">
<path d="M21.2563 5.71027C20.882 5.71027 20.5781 5.40614 20.5781 5.03166V0.678602C20.5781 0.30412 20.882 0 21.2563 0C21.6305 0 21.9344 0.30412 21.9344 0.678602V5.03166C21.9344 5.40614 21.6305 5.71027 21.2563 5.71027Z" fill="#F24429"/>
<path d="M23.968 7.66082V4.72047C23.968 4.34599 23.6641 4.04187 23.2898 4.04187H19.2219C18.8523 4.04187 18.5437 4.35068 18.5437 4.72047V7.66082C10.8484 8.95314 4.98438 15.6493 4.98438 23.7174C4.98438 32.7097 12.2695 40 21.2555 40C30.2414 40 37.5266 32.7097 37.5266 23.7174C37.5266 15.6493 31.6625 8.95314 23.9672 7.66082H23.968Z" fill="#F78D7D"/>
<path d="M23.968 8.1127H18.5446V4.72047C18.5446 4.34599 18.8485 4.04187 19.2227 4.04187H23.2907C23.6649 4.04187 23.9688 4.34599 23.9688 4.72047V8.1127H23.968Z" fill="#F78D7D"/>
<path d="M20.5781 4.04272H19.2218C18.8476 4.04272 18.5437 4.34684 18.5437 4.72133V8.11356H19.9V4.72133C19.9 4.34684 20.2039 4.04272 20.5781 4.04272Z" fill="#F5715C"/>
<path d="M30.5726 15.3733C34.7773 17.2128 37.5273 20.2642 37.5273 23.7166C37.5273 14.7244 30.2422 7.43408 21.2562 7.43408C25.2148 7.43408 28.6781 10.6184 30.5726 15.3733Z" fill="#F78D7D"/>
<path d="M30.5726 32.0608C28.6789 36.8157 25.2156 39.9999 21.2562 39.9999C30.2422 39.9999 37.5273 32.7097 37.5273 23.7174C37.5273 27.1706 34.7773 30.2212 30.5726 32.0616V32.0608Z" fill="#F6806E"/>
<path d="M11.9398 32.0608C7.73511 30.2212 4.98511 27.1699 4.98511 23.7167C4.98511 32.7089 12.2703 39.9992 21.2562 39.9992C17.2976 39.9992 13.8343 36.8149 11.9398 32.0608Z" fill="#F78D7D"/>
<path d="M11.9398 15.3733C13.8335 10.6184 17.2968 7.43408 21.2562 7.43408C12.2703 7.43408 4.98511 14.7244 4.98511 23.7166C4.98511 20.2634 7.73511 17.2128 11.9398 15.3733Z" fill="#F78D7D"/>
<path d="M30.5726 15.3733C31.2679 17.1183 31.7515 19.0752 31.9711 21.1641C35.3765 21.7857 37.5281 22.6988 37.5281 23.7167C37.5281 20.2635 34.7773 17.2129 30.5734 15.3726L30.5726 15.3733Z" fill="#FAAFA3"/>
<path d="M10.5422 21.1641C10.7617 19.0751 11.2453 17.1183 11.9406 15.3733C7.73596 17.2129 4.98596 20.2642 4.98596 23.7174C4.98596 22.6995 7.13674 21.7864 10.543 21.1649L10.5422 21.1641Z" fill="#FAAFA3"/>
<path d="M31.9711 26.27C31.7523 28.359 31.2679 30.3158 30.5726 32.0608C34.7773 30.2212 37.5273 27.1699 37.5273 23.7167C37.5273 24.7346 35.3758 25.6477 31.9703 26.2693L31.9711 26.27Z" fill="#F78D7D"/>
<path d="M11.9398 32.0608C11.2445 30.3158 10.7609 28.359 10.5414 26.27C7.13594 25.6485 4.98438 24.7353 4.98438 23.7174C4.98438 27.1706 7.73516 30.2212 11.9391 32.0616L11.9398 32.0608Z" fill="#F5715C"/>
<path d="M31.9711 21.1641C32.0586 21.9959 32.1039 22.8481 32.1039 23.7166C32.1039 24.5852 32.0578 25.4374 31.9711 26.2692C35.3765 25.6477 37.5281 24.7345 37.5281 23.7166C37.5281 22.6987 35.3765 21.7856 31.9711 21.1641Z" fill="#F6806E"/>
<path d="M10.5421 26.2701C10.4546 25.4382 10.4093 24.5861 10.4093 23.7175C10.4093 22.8489 10.4554 21.9968 10.5421 21.1649C7.13667 21.7864 4.98511 22.6996 4.98511 23.7175C4.98511 24.7354 7.13589 25.6485 10.5421 26.2701Z" fill="#F78D7D"/>
<path d="M30.5727 32.0608C28.6258 32.913 26.3672 33.5048 23.9258 33.7565C23.3055 37.5576 22.3407 40 21.2571 40C25.2157 40 28.679 36.8157 30.5735 32.0608H30.5727Z" fill="#F9AB9F"/>
<path d="M23.925 13.6775C26.3672 13.9293 28.6258 14.5211 30.5719 15.3733C28.6781 10.6184 25.2149 7.43408 21.2555 7.43408C22.3391 7.43408 23.3039 9.87642 23.9242 13.6768L23.925 13.6775Z" fill="#F9AB9F"/>
<path d="M11.9399 15.3733C13.8867 14.5211 16.1453 13.9293 18.5867 13.6775C19.2071 9.87642 20.1719 7.43408 21.2555 7.43408C17.2969 7.43408 13.8336 10.6184 11.9391 15.3733H11.9399Z" fill="#FAAFA3"/>
<path d="M18.5875 33.7565C16.1454 33.5048 13.8868 32.9122 11.9407 32.0608C13.8344 36.8157 17.2977 40 21.2571 40C20.1735 40 19.2086 37.5576 18.5883 33.7573L18.5875 33.7565Z" fill="#F45941"/>
<path d="M31.9711 21.1641C31.7523 19.0752 31.268 17.1183 30.5727 15.3733C28.6258 14.5212 26.3672 13.9294 23.9258 13.6776C24.2414 15.6126 24.4688 17.8993 24.5758 20.3956C27.3703 20.5168 29.9023 20.7865 31.9711 21.1641Z" fill="#F78D7D"/>
<path d="M18.5875 13.6776C16.1454 13.9294 13.8868 14.5212 11.9407 15.3733C11.2454 17.1183 10.7618 19.0752 10.5422 21.1641C12.611 20.7865 15.143 20.516 17.9375 20.3956C18.0454 17.8993 18.2719 15.6126 18.5875 13.6776Z" fill="#F78D7D"/>
<path d="M10.5422 26.27C10.7618 28.359 11.2454 30.3158 11.9407 32.0608C13.8875 32.913 16.1461 33.5048 18.5875 33.7565C18.2719 31.8216 18.0446 29.5348 17.9375 27.0385C15.143 26.9181 12.611 26.6476 10.5422 26.27Z" fill="#F78D7D"/>
<path d="M24.5758 27.0385C24.468 29.5348 24.2414 31.8216 23.9258 33.7565C26.368 33.5048 28.6266 32.9122 30.5727 32.0608C31.268 30.3158 31.7516 28.359 31.9711 26.27C29.9023 26.6476 27.3703 26.9181 24.5758 27.0385Z" fill="#FAAFA3"/>
<path d="M17.8664 23.7174C17.8664 22.5791 17.8906 21.4682 17.9367 20.3964C15.1422 20.5175 12.6101 20.7873 10.5414 21.1649C10.4539 21.9967 10.4086 22.8489 10.4086 23.7174C10.4086 24.586 10.4547 25.4382 10.5414 26.27C12.6101 26.6476 15.1422 26.9181 17.9367 27.0385C17.8906 25.9659 17.8664 24.8557 17.8664 23.7167V23.7174Z" fill="#F45941"/>
<path d="M24.6461 23.7174C24.6461 24.8557 24.6219 25.9667 24.5758 27.0385C27.3703 26.9174 29.9024 26.6476 31.9711 26.27C32.0586 25.4382 32.1039 24.586 32.1039 23.7174C32.1039 22.8489 32.0578 21.9967 31.9711 21.1649C29.9024 20.7873 27.3703 20.5168 24.5758 20.3964C24.6219 21.469 24.6461 22.5799 24.6461 23.7182V23.7174Z" fill="#F9AB9F"/>
<path d="M18.5875 13.6775C19.4563 13.5876 20.3477 13.5407 21.2563 13.5407C22.1649 13.5407 23.0571 13.5884 23.925 13.6775C23.3047 9.87642 22.3399 7.43408 21.2563 7.43408C20.1727 7.43408 19.2078 9.87642 18.5875 13.6775Z" fill="#F78D7D"/>
<path d="M23.925 33.7566C23.0563 33.8465 22.1649 33.8934 21.2563 33.8934C20.3477 33.8934 19.4563 33.8457 18.5875 33.7566C19.2078 37.5577 20.1727 40 21.2563 40C22.3399 40 23.3047 37.5577 23.925 33.7566Z" fill="#F78D7D"/>
<path d="M21.2563 27.1097C20.1188 27.1097 19.0086 27.0854 17.9368 27.0393C18.0446 29.5356 18.2711 31.8224 18.5868 33.7573C19.4555 33.8472 20.3469 33.8941 21.2555 33.8941C22.1641 33.8941 23.0563 33.8464 23.9243 33.7573C24.2399 31.8224 24.4672 29.5356 24.5743 27.0393C23.5024 27.0854 22.393 27.1097 21.2555 27.1097H21.2563Z" fill="#F6806E"/>
<path d="M21.2562 20.3252C22.3937 20.3252 23.5039 20.3495 24.5757 20.3956C24.4679 17.8993 24.2414 15.6125 23.9257 13.6776C23.057 13.5877 22.1656 13.5408 21.257 13.5408C20.3484 13.5408 19.457 13.5885 18.5882 13.6776C18.2726 15.6125 18.0453 17.8993 17.9382 20.3956C19.0101 20.3495 20.1203 20.3252 21.257 20.3252H21.2562Z" fill="#FAAFA3"/>
<path d="M24.5758 20.3956C23.504 20.3494 22.3938 20.3252 21.2563 20.3252C20.1188 20.3252 19.0086 20.3494 17.9368 20.3956C17.8907 21.4682 17.8665 22.5791 17.8665 23.7166C17.8665 24.8542 17.8907 25.9659 17.9368 27.0377C19.0086 27.0839 20.1188 27.1081 21.2563 27.1081C22.3938 27.1081 23.504 27.0839 24.575 27.0377C24.6211 25.9651 24.6454 24.8542 24.6454 23.7166C24.6454 22.5783 24.6211 21.4674 24.575 20.3956H24.5758Z" fill="#F78D7D"/>
<path d="M7.14683 28.7874C5.77183 27.295 4.98511 25.5633 4.98511 23.7167C4.98511 32.7089 12.2703 39.9992 21.2562 39.9992C20.3257 39.9992 19.4234 39.821 18.5617 39.4903C13.1734 38.1088 8.86401 34.0349 7.14683 28.7866V28.7874Z" fill="#F5715C"/>
<path d="M6.39995 25.102C5.49136 24.679 4.98511 24.2107 4.98511 23.7174C4.98511 25.564 5.77183 27.2949 7.14683 28.7874C6.76245 27.6123 6.50776 26.3779 6.39995 25.102Z" fill="#F35138"/>
<path d="M6.34143 23.7175C6.34143 23.2507 6.36252 22.7895 6.40081 22.3329C5.49221 22.7558 4.98596 23.2241 4.98596 23.7175C4.98596 24.2108 5.49299 24.6791 6.40081 25.102C6.36252 24.6454 6.34143 24.1842 6.34143 23.7175Z" fill="#F5715C"/>
<path d="M7.14683 18.6467C5.77183 20.1392 4.98511 21.8709 4.98511 23.7167C4.98511 23.2234 5.49136 22.7551 6.39995 22.3321C6.50776 21.0562 6.76167 19.8218 7.14683 18.6467Z" fill="#F78D7D"/>
<path d="M18.5617 7.94303C19.4235 7.61233 20.3258 7.43408 21.2571 7.43408C12.2711 7.43408 4.98596 14.7244 4.98596 23.7166C4.98596 21.87 5.77268 20.1391 7.14768 18.6467C8.86487 13.3984 13.1742 9.32447 18.5625 7.94303H18.5617Z" fill="#F5715C"/>
<path d="M40.4446 5.47569L37.0657 4.32097L36.1102 0.495627C36.0399 0.212615 35.7852 0.0140381 35.4938 0.0140381C35.2024 0.0140381 34.9477 0.212615 34.8774 0.495627L33.9219 4.32097L30.543 5.47569C30.286 5.56325 30.1125 5.80561 30.1125 6.07768C30.1125 6.34974 30.2852 6.59132 30.543 6.67966L33.9219 7.83438L34.8774 11.6597C34.9477 11.9427 35.2024 12.1413 35.4938 12.1413C35.7852 12.1413 36.0399 11.9427 36.1102 11.6597L37.0657 7.83438L40.4446 6.67966C40.7016 6.5921 40.875 6.34974 40.875 6.07768C40.875 5.80561 40.7024 5.56325 40.4446 5.47569Z" fill="#FDE3DF"/>
<path d="M11.2078 8.18931L7.82886 7.0346L6.87339 3.20925C6.80386 2.92937 6.54526 2.72766 6.25698 2.72766C5.9687 2.72766 5.71011 2.92937 5.64058 3.20925L4.68511 7.0346L1.3062 8.18931C1.05151 8.27609 0.875732 8.52236 0.875732 8.7913C0.875732 9.06024 1.05151 9.30651 1.3062 9.39329L4.68511 10.548L5.64058 14.3734C5.71089 14.6532 5.9687 14.8549 6.25698 14.8549C6.54526 14.8549 6.80386 14.6532 6.87339 14.3734L7.82886 10.548L11.2078 9.39329C11.4648 9.30572 11.6382 9.06337 11.6382 8.7913C11.6382 8.51923 11.4656 8.27766 11.2078 8.18931Z" fill="#FDE3DF"/>
<path d="M33.7742 33.1366L30.3953 31.9819L29.4398 28.1565C29.3695 27.8735 29.1148 27.6749 28.8234 27.6749C28.532 27.6749 28.2773 27.8735 28.207 28.1565L27.2515 31.9819L23.8726 33.1366C23.6156 33.2241 23.4421 33.4665 23.4421 33.7386C23.4421 34.0106 23.6148 34.253 23.8726 34.3406L27.2515 35.4953L28.207 39.3206C28.2773 39.6036 28.532 39.8022 28.8234 39.8022C29.1148 39.8022 29.3695 39.6036 29.4398 39.3206L30.3953 35.4953L33.7742 34.3406C34.0312 34.253 34.2046 34.0106 34.2046 33.7386C34.2046 33.4665 34.032 33.2241 33.7742 33.1366Z" fill="#FDE3DF"/>
</g>
<defs>
<clipPath id="clip0_1_986">
<rect width="40" height="40" fill="white" transform="translate(0.875)"/>
</clipPath>
</defs>
</svg>
