<svg width="25" height="24" viewBox="0 0 25 24" fill="none" xmlns="http://www.w3.org/2000/svg">
<path fill-rule="evenodd" clip-rule="evenodd" d="M7.5 6V18C7.5 19.1046 8.39543 20 9.5 20H15.5C16.6046 20 17.5 19.1046 17.5 18V6H19.5V18C19.5 20.2091 17.7091 22 15.5 22H9.5C7.29086 22 5.5 20.2091 5.5 18V6H7.5Z" fill="#FFA094"/>
<path fill-rule="evenodd" clip-rule="evenodd" d="M12.498 2C11.393 2 10.498 2.89239 10.498 3.99417H5.49805C4.94605 3.99417 4.49805 4.44086 4.49805 4.99125C4.49805 5.54164 4.94605 5.98833 5.49805 5.98833H19.498C20.05 5.98833 20.498 5.54164 20.498 4.99125C20.498 4.44086 20.05 3.99417 19.498 3.99417H14.498C14.498 2.89239 13.603 2 12.498 2ZM10.5002 8.02914C11.0525 8.02914 11.5002 8.47555 11.5002 9.02622V17.0029C11.5002 17.5536 11.0525 18 10.5002 18C9.94796 18 9.50024 17.5536 9.50024 17.0029V9.02622C9.50024 8.47555 9.94796 8.02914 10.5002 8.02914ZM15.5002 9.02622C15.5002 8.47555 15.0525 8.02914 14.5002 8.02914C13.948 8.02914 13.5002 8.47555 13.5002 9.02622V17.0029C13.5002 17.5536 13.948 18 14.5002 18C15.0525 18 15.5002 17.5536 15.5002 17.0029V9.02622Z" fill="#EF4D44"/>
</svg>
