<svg width="16" height="16" viewBox="0 0 16 16" fill="none" xmlns="http://www.w3.org/2000/svg">
<path fill-rule="evenodd" clip-rule="evenodd" d="M2 4.66667C2 3.19391 3.19391 2 4.66667 2H7.33333C7.70152 2 8 2.29848 8 2.66667C8 3.03486 7.70152 3.33333 7.33333 3.33333H4.66667C3.93029 3.33333 3.33333 3.93029 3.33333 4.66667V11.3333C3.33333 12.0697 3.93029 12.6667 4.66667 12.6667H11.3333C12.0697 12.6667 12.6667 12.0697 12.6667 11.3333V8.66667C12.6667 8.29848 12.9651 8 13.3333 8C13.7015 8 14 8.29848 14 8.66667V11.3333C14 12.8061 12.8061 14 11.3333 14H4.66667C3.19391 14 2 12.8061 2 11.3333V4.66667Z" fill="black" fill-opacity="0.4"/>
<path opacity="0.986784" d="M11.3333 1.33331C11.1567 1.33331 10.9793 1.39598 10.854 1.52065C9.85399 2.52065 9.85399 2.52065 9.52066 2.85398L4.85399 7.52065C4.72933 7.64598 4.66666 7.82331 4.66666 7.99998V10.6666C4.66666 11.0346 4.96532 11.3333 5.33332 11.3333C5.66666 11.3333 7.66666 11.3333 7.99999 11.3333C8.17666 11.3333 8.35399 11.2706 8.47932 11.146L13.146 6.47931C13.4793 6.14598 13.4793 6.14598 14.4793 5.14598C14.604 5.02064 14.6667 4.84331 14.6667 4.66665C14.6667 3.57598 14.3887 2.79665 13.8127 2.20799C13.2307 1.61465 12.454 1.33331 11.3333 1.33331ZM11.6047 2.6793C12.206 2.71463 12.5867 2.85197 12.854 3.12531C13.1273 3.40397 13.2847 3.82465 13.3213 4.41465C12.9953 4.74065 12.7933 4.93399 12.6693 5.05865C12.1407 4.53065 11.47 3.86597 10.942 3.3373C11.0667 3.21263 11.2787 3.0053 11.6047 2.6793ZM10.0013 4.284L11.7247 6.00267L7.70799 9.99998C7.28665 9.99998 6.61399 9.99998 5.99999 9.99998V8.29197L10.0013 4.284Z" fill="black"/>
</svg>
