<svg width="20" height="20" viewBox="0 0 20 20" fill="none" xmlns="http://www.w3.org/2000/svg">
<path d="M10 1.66666C5.3975 1.66666 1.66667 5.39749 1.66667 9.99999C1.66667 14.6025 5.3975 18.3333 10 18.3333C14.6025 18.3333 18.3333 14.6025 18.3333 9.99999C18.3333 5.39749 14.6025 1.66666 10 1.66666ZM10 3.33332C13.6817 3.33332 16.6667 6.31832 16.6667 9.99999C16.6667 13.6817 13.6817 16.6667 10 16.6667C6.31833 16.6667 3.33333 13.6817 3.33333 9.99999C3.33333 6.31832 6.31833 3.33332 10 3.33332Z" fill="black" fill-opacity="0.4"/>
<path d="M9.97427 5.83331C8.82086 5.83331 7.81814 6.59331 7.52769 7.68247C7.40898 8.12747 7.68344 8.60664 8.13218 8.72414C8.58175 8.84164 9.03976 8.56998 9.15847 8.12498C9.25528 7.76331 9.58952 7.49998 9.97427 7.49998C10.4382 7.49998 10.8145 7.86998 10.8162 8.33331C10.8179 8.73165 10.5956 9.14831 10.1586 9.58331C10.0458 9.69498 9.90523 9.80415 9.76379 9.92165C9.69307 9.98082 9.4868 10.15 9.44808 10.1825C9.09279 10.4791 9.04312 11.0283 9.34284 11.38C9.64256 11.7325 10.1713 11.755 10.5266 11.4583C10.5518 11.4375 10.785 11.2683 10.8684 11.1983C11.0452 11.0508 11.1908 10.9058 11.3424 10.755C12.0656 10.0367 12.5033 9.25748 12.5 8.33331C12.4949 6.95331 11.3676 5.83331 9.97427 5.83331ZM9.97427 12.5C9.50953 12.5 9.13236 12.8733 9.13236 13.3333C9.13236 13.7933 9.50953 14.1666 9.97427 14.1666C10.439 14.1666 10.8162 13.7933 10.8162 13.3333C10.8162 12.8733 10.439 12.5 9.97427 12.5Z" fill="black"/>
</svg>
