<svg width="41" height="40" viewBox="0 0 41 40" fill="none" xmlns="http://www.w3.org/2000/svg">
<g clip-path="url(#clip0_1_1026)">
<path d="M1.31813 21.1688L1.31813 18.9202C1.31813 18.475 1.6785 18.1139 2.12286 18.1139L40.1953 18.1139C40.6396 18.1139 41 18.475 41 18.9202L41 21.1688C41 21.6141 40.6396 21.9751 40.1953 21.9751L2.12286 21.9751C1.6785 21.9751 1.31813 21.6141 1.31813 21.1688Z" fill="#E7E8F0"/>
<path d="M28.4319 18.1139L28.4319 21.9751L26.1681 21.9751L26.1681 18.1139L28.4319 18.1139Z" fill="#BBC0D5"/>
<path d="M28.4319 27.2425L28.4319 12.8465C28.4319 11.2573 29.7181 9.96863 31.3041 9.96863C32.8901 9.96863 34.1763 11.2573 34.1763 12.8465L34.1763 27.2425C34.1763 28.8316 32.8901 30.1203 31.3041 30.1203C29.7181 30.1203 28.4319 28.8316 28.4319 27.2425Z" fill="#45518B"/>
<path d="M37.9617 23.4829L37.9617 16.6059C37.9617 15.3847 36.9733 14.3944 35.7545 14.3944L34.1763 14.3944L34.1763 25.6944L35.7545 25.6944C36.9733 25.6944 37.9617 24.7041 37.9617 23.4829Z" fill="#5D689A"/>
<path d="M13.8873 27.2425L13.8873 12.8465C13.8873 11.2573 12.6011 9.96863 11.015 9.96863C9.42901 9.96863 8.14281 11.2573 8.14281 12.8465L8.14281 27.2425C8.14281 28.8316 9.42901 30.1203 11.015 30.1203C12.6011 30.1203 13.8873 28.8316 13.8873 27.2425Z" fill="#45518B"/>
<path d="M34.1763 27.2424L34.1763 24.8235C34.1763 26.4126 32.8901 27.7013 31.3041 27.7013C29.7181 27.7013 28.4319 26.4126 28.4319 24.8235L28.4319 27.2424C28.4319 28.8315 29.7181 30.1202 31.3041 30.1202C32.8901 30.1202 34.1763 28.8315 34.1763 27.2424Z" fill="#0E1D69"/>
<path d="M13.8871 27.2424L13.8871 24.8235C13.8871 26.4126 12.6009 27.7013 11.0149 27.7013C9.42883 27.7013 8.14263 26.4126 8.14263 24.8235L8.14263 27.2424C8.14263 28.8315 9.42883 30.1202 11.0149 30.1202C12.6009 30.1202 13.8871 28.8315 13.8871 27.2424Z" fill="#0E1D69"/>
<path d="M4.35636 23.4829L4.35636 16.6059C4.35636 15.3847 5.34469 14.3944 6.56351 14.3944L8.1427 14.3944L8.1427 25.6944L6.56351 25.6944C5.34469 25.6944 4.35636 24.7041 4.35636 23.4829Z" fill="#5D689A"/>
<path d="M37.9617 23.4831L37.9617 21.0642C37.9617 22.2854 36.9733 23.2757 35.7545 23.2757L34.1763 23.2757L34.1763 25.6956L35.7545 25.6956C36.9733 25.6956 37.9617 24.7053 37.9617 23.4841L37.9617 23.4831Z" fill="#45518B"/>
<path d="M8.1427 23.2746L6.56351 23.2746C5.34469 23.2746 4.35636 22.2843 4.35636 21.0631L4.35636 23.482C4.35636 24.7032 5.34469 25.6935 6.56351 25.6935L8.1427 25.6935L8.1427 23.2736L8.1427 23.2746Z" fill="#45518B"/>
</g>
<defs>
<clipPath id="clip0_1_1026">
<rect width="40" height="40" fill="white" transform="translate(0.625)"/>
</clipPath>
</defs>
</svg>
