<svg width="16" height="16" viewBox="0 0 16 16" fill="none" xmlns="http://www.w3.org/2000/svg">
<path fill-rule="evenodd" clip-rule="evenodd" d="M12.6667 11.3333C12.6667 12.8061 11.4727 14 9.99999 14L4.66666 14C3.1939 14 1.99999 12.8061 1.99999 11.3333L1.99999 6C1.99999 4.52724 3.1939 3.33333 4.66666 3.33333H6.66666C7.03485 3.33333 7.33332 3.63181 7.33332 4C7.33332 4.36819 7.03485 4.66667 6.66666 4.66667H4.66666C3.93028 4.66667 3.33332 5.26362 3.33332 6L3.33332 11.3333C3.33332 12.0697 3.93028 12.6667 4.66666 12.6667L9.99999 12.6667C10.7364 12.6667 11.3333 12.0697 11.3333 11.3333L11.3333 9.33333C11.3333 8.96514 11.6318 8.66667 12 8.66667C12.3682 8.66667 12.6667 8.96514 12.6667 9.33333L12.6667 11.3333Z" fill="black" fill-opacity="0.4"/>
<path fill-rule="evenodd" clip-rule="evenodd" d="M6.86193 8.19527C6.60158 8.45562 6.60158 8.87773 6.86193 9.13808C7.12228 9.39843 7.54439 9.39843 7.80474 9.13808L12.6667 4.27615L12.6667 6.66668H14L14 2.66668C14 2.29849 13.7015 2.00001 13.3333 2.00001L9.33333 2.00001V3.33334H11.7239L6.86193 8.19527Z" fill="black"/>
</svg>
