<svg width="40" height="40" viewBox="0 0 40 40" fill="none" xmlns="http://www.w3.org/2000/svg">
<g filter="url(#filter0_b_102_9761)">
<rect width="40" height="40" rx="20" fill="black" fill-opacity="0.5"/>
<path fill-rule="evenodd" clip-rule="evenodd" d="M21.2501 19.5833C21.9404 19.5833 22.5001 19.0237 22.5001 18.3333C22.5001 17.643 21.9404 17.0833 21.2501 17.0833C20.5597 17.0833 20.0001 17.643 20.0001 18.3333C20.0001 19.0237 20.5597 19.5833 21.2501 19.5833ZM15.8334 18.75C14.1667 18.75 12.2853 22.8963 11.6667 24.5833C11.6667 26.4243 13.1581 27.9167 14.9991 27.9167H23.3347C25.1756 27.9167 26.6667 26.4243 26.6667 24.5833C26.6667 24.5833 24.8823 21.25 23.3347 21.25C22.3528 21.25 21.4054 22.2613 20.8921 23.0454C20.8592 23.0956 20.8284 23.1466 20.798 23.197C20.6252 23.4831 20.4639 23.75 20.0001 23.75C19.4547 23.75 19.2915 23.3546 19.1305 22.9347C18.3353 20.861 17.0834 18.75 15.8334 18.75Z" fill="white"/>
<path fill-rule="evenodd" clip-rule="evenodd" d="M25.0002 16.25C25.0002 16.7102 25.3733 17.0833 25.8335 17.0833C26.2937 17.0833 26.6668 16.7102 26.6668 16.25V15.4167H27.5002C27.9604 15.4167 28.3335 15.0436 28.3335 14.5833C28.3335 14.1231 27.9604 13.75 27.5002 13.75H26.6668V12.9167C26.6668 12.4564 26.2937 12.0833 25.8335 12.0833C25.3733 12.0833 25.0002 12.4564 25.0002 12.9167V13.75H24.1668C23.7066 13.75 23.3335 14.1231 23.3335 14.5833C23.3335 15.0436 23.7066 15.4167 24.1668 15.4167H25.0002V16.25Z" fill="white"/>
<path fill-rule="evenodd" clip-rule="evenodd" d="M25.0001 18.16C25.2553 18.2715 25.5371 18.3333 25.8334 18.3333C26.1297 18.3333 26.4116 18.2715 26.6667 18.16V24.5833C26.6667 24.5833 25.9339 23.2143 25.0001 22.2309V18.16ZM24.7771 15.4167C24.4889 14.9185 23.9503 14.5833 23.3334 14.5833C23.3334 14.1231 23.7065 13.75 24.1667 13.75H25.0001V13.3626C25.9952 13.9383 26.6652 15.0136 26.6667 16.2456M22.9165 12.9167C22.4106 13.2968 22.0834 13.9018 22.0834 14.5833L15.0001 14.5833C14.0796 14.5833 13.3334 15.3295 13.3334 16.25V21.0732C12.588 22.3119 11.9728 23.7487 11.6667 24.5833V16.25C11.6667 14.4091 13.1591 12.9167 15.0001 12.9167H22.9165ZM25.0001 16.2475V15.4167H24.7771M25.0001 16.2518C25.0011 16.7112 25.3738 17.0833 25.8334 17.0833C26.2936 17.0833 26.6667 16.7102 26.6667 16.25" fill="white" fill-opacity="0.4"/>
</g>
<defs>
<filter id="filter0_b_102_9761" x="-12" y="-12" width="64" height="64" filterUnits="userSpaceOnUse" color-interpolation-filters="sRGB">
<feFlood flood-opacity="0" result="BackgroundImageFix"/>
<feGaussianBlur in="BackgroundImageFix" stdDeviation="6"/>
<feComposite in2="SourceAlpha" operator="in" result="effect1_backgroundBlur_102_9761"/>
<feBlend mode="normal" in="SourceGraphic" in2="effect1_backgroundBlur_102_9761" result="shape"/>
</filter>
</defs>
</svg>
