<svg width="33" height="32" viewBox="0 0 33 32" fill="none" xmlns="http://www.w3.org/2000/svg">
<path fill-rule="evenodd" clip-rule="evenodd" d="M7.16667 9.33333C7.16667 7.86057 8.36057 6.66667 9.83333 6.66667H23.1667C24.6394 6.66667 25.8333 7.86057 25.8333 9.33333V18.9028C27.3274 20.4762 28.5 22.6667 28.5 22.6667V9.33333C28.5 6.38781 26.1122 4 23.1667 4H9.83333C6.88781 4 4.5 6.38781 4.5 9.33333V22.6667C4.98971 21.3312 5.97405 19.0324 7.16667 17.0504V9.33333Z" fill="#D4D4D8"/>
<path fill-rule="evenodd" clip-rule="evenodd" d="M21.1667 13.3333C22.2712 13.3333 23.1667 12.4379 23.1667 11.3333C23.1667 10.2288 22.2712 9.33333 21.1667 9.33333C20.0621 9.33333 19.1667 10.2288 19.1667 11.3333C19.1667 12.4379 20.0621 13.3333 21.1667 13.3333ZM11.1667 13.3333C8.5 13.3333 5.48976 19.9675 4.5 22.6667C4.5 25.6122 6.88617 28 9.83169 28H23.1687C26.1142 28 28.5 25.6122 28.5 22.6667C28.5 22.6667 25.6449 17.3333 23.1687 17.3333C21.5976 17.3333 20.0819 18.9515 19.2606 20.206C19.208 20.2863 19.1587 20.3679 19.11 20.4485C18.8335 20.9062 18.5754 21.3333 17.8334 21.3333C16.9608 21.3333 16.6996 20.7006 16.442 20.0288C15.1696 16.7109 13.1667 13.3333 11.1667 13.3333Z" fill="#71717A"/>
</svg>
