<svg width="40" height="40" viewBox="0 0 40 40" fill="none" xmlns="http://www.w3.org/2000/svg">
<g clip-path="url(#clip0_1_1121)">
<path d="M8.43518 7.82947H13.4281V18.7363H8.43518V7.82947Z" fill="#F7E1E4"/>
<path d="M10.3742 11.9597H13.4281V18.7363H10.3742V11.9597Z" fill="#FBEFF1"/>
<path d="M18.4203 19.6468V21.6259H3.4422V19.6468C3.4422 18.475 4.39142 17.5238 5.56251 17.5238H16.3016C17.4711 17.5238 18.4203 18.4742 18.4203 19.6468Z" fill="#C63249"/>
<path d="M18.4203 19.6468V21.6259H6.39532V19.6468C6.39532 18.475 7.34376 17.5238 8.51407 17.5238H16.3008C17.4703 17.5238 18.4195 18.4742 18.4195 19.6468H18.4203Z" fill="#DE8A96"/>
<path d="M21.8641 22.7085V28.3548H0V22.7085C0 21.1831 1.23438 19.9472 2.75703 19.9472H19.1062C20.6297 19.9472 21.8641 21.1831 21.8641 22.7085Z" fill="#BF1932"/>
<path d="M21.864 22.7085V28.3548H5.26483V22.7085C5.26483 21.1831 6.49921 19.9472 8.02186 19.9472H19.107C20.6305 19.9472 21.8648 21.1831 21.8648 22.7085H21.864Z" fill="#C7374D"/>
<path d="M16.1196 5.19409C16.1196 6.78987 15.4008 8.21668 14.2703 9.16945C13.368 9.93058 12.2031 10.3882 10.9313 10.3882C8.06721 10.3882 5.74377 8.06258 5.74377 5.19488C5.74377 2.32717 8.06721 0 10.9313 0C12.2039 0 13.3696 0.458394 14.2719 1.21952C15.4016 2.17229 16.1196 3.59988 16.1196 5.19409Z" fill="#C63249"/>
<path d="M16.1196 5.19407C16.1196 6.78985 15.4008 8.21666 14.2703 9.16943C13.8055 9.34544 13.3031 9.44087 12.7774 9.44087C10.4352 9.44087 8.53674 7.54002 8.53674 5.19407C8.53674 2.84813 10.4352 0.948059 12.7774 0.948059C13.3031 0.948059 13.8071 1.04349 14.2719 1.2195C15.4016 2.17227 16.1196 3.59986 16.1196 5.19407Z" fill="#DE8A96"/>
<path d="M23.8703 26.7652C23.532 26.7652 23.2578 26.4907 23.2578 26.1519V17.2258C23.2578 15.7896 24.4242 14.6217 25.8586 14.6217C27.293 14.6217 28.4594 15.7896 28.4594 17.2258V18.59C28.4594 19.3535 29.0797 19.9746 29.8422 19.9746C30.6047 19.9746 31.225 19.3535 31.225 18.59V12.2789C31.225 11.9402 31.4992 11.6656 31.8375 11.6656C32.1758 11.6656 32.45 11.9402 32.45 12.2789V18.59C32.45 20.0293 31.2805 21.2003 29.843 21.2003C28.4055 21.2003 27.2359 20.0293 27.2359 18.59V17.2258C27.2359 16.4662 26.6187 15.8482 25.8602 15.8482C25.1016 15.8482 24.4844 16.4662 24.4844 17.2258V26.1519C24.4844 26.4907 24.2102 26.7652 23.8719 26.7652H23.8703Z" fill="#C7374D"/>
<path d="M31.9351 23.8498H15.8054C11.3515 23.8498 7.7406 27.4645 7.7406 31.9249C7.7406 36.3852 11.3508 40 15.8054 40C18.682 40 21.207 38.491 22.6344 36.2217H25.1062C26.5336 38.4918 29.0586 40 31.9351 40C36.389 40 40 36.3845 40 31.9249C40 27.4653 36.389 23.8498 31.9351 23.8498Z" fill="#F7E1E4"/>
<path d="M19.9086 30.1273H17.3953V27.6108H13.8047V30.1273H11.2914V33.7225H13.8047V36.239H17.3953V33.7225H19.9086V30.1273Z" fill="#C7374D"/>
<path d="M30.2047 31.9249C30.2047 33.1131 29.243 34.0761 28.0563 34.0761C26.8696 34.0761 25.9078 33.1131 25.9078 31.9249C25.9078 30.7367 26.8696 29.7737 28.0563 29.7737C29.243 29.7737 30.2047 30.7367 30.2047 31.9249Z" fill="#DE8A96"/>
<path d="M24.2602 32.5374H22.2625C21.9242 32.5374 21.65 32.2628 21.65 31.9241C21.65 31.5854 21.9242 31.3109 22.2625 31.3109H24.2602C24.5985 31.3109 24.8727 31.5854 24.8727 31.9241C24.8727 32.2628 24.5985 32.5374 24.2602 32.5374Z" fill="#F3D6DA"/>
<path d="M34.0836 28.0411C34.0836 29.2293 33.1219 30.1922 31.9352 30.1922C30.7485 30.1922 29.7867 29.2293 29.7867 28.0411C29.7867 26.8528 30.7485 25.8899 31.9352 25.8899C33.1219 25.8899 34.0836 26.8528 34.0836 28.0411Z" fill="#DE8A96"/>
<path d="M37.9625 31.9249C37.9625 33.1131 37.0008 34.0761 35.8141 34.0761C34.6274 34.0761 33.6656 33.1131 33.6656 31.9249C33.6656 30.7367 34.6274 29.7737 35.8141 29.7737C37.0008 29.7737 37.9625 30.7367 37.9625 31.9249Z" fill="#E7A8B1"/>
<path d="M34.0836 35.8088C34.0836 36.997 33.1219 37.9599 31.9352 37.9599C30.7485 37.9599 29.7867 36.997 29.7867 35.8088C29.7867 34.6205 30.7485 33.6576 31.9352 33.6576C33.1219 33.6576 34.0836 34.6205 34.0836 35.8088Z" fill="#E7A8B1"/>
<path d="M32.4469 37.8981C32.2828 37.9388 32.1117 37.9599 31.9352 37.9599C30.7492 37.9599 29.7867 36.997 29.7867 35.8088C29.7867 34.6205 30.7492 33.6576 31.9352 33.6576C32.1117 33.6576 32.2828 33.6787 32.4469 33.7194C31.5071 33.9494 30.8102 34.7981 30.8102 35.8088C30.8102 36.8194 31.5071 37.6697 32.4469 37.8981Z" fill="#D46576"/>
<path d="M36.3258 34.0135C36.1617 34.0542 35.9906 34.0761 35.8141 34.0761C34.6281 34.0761 33.6656 33.1131 33.6656 31.9249C33.6656 30.7367 34.6281 29.7737 35.8141 29.7737C35.9906 29.7737 36.1617 29.7949 36.3258 29.8355C35.386 30.0655 34.6891 30.9135 34.6891 31.9249C34.6891 32.9364 35.386 33.7851 36.3258 34.0143V34.0135Z" fill="#D46576"/>
<path d="M32.4469 30.1304C32.2828 30.1711 32.1117 30.1922 31.9352 30.1922C30.7492 30.1922 29.7867 29.2293 29.7867 28.0411C29.7867 26.8528 30.7492 25.8899 31.9352 25.8899C32.1117 25.8899 32.2828 25.911 32.4469 25.9525C31.5071 26.1817 30.8102 27.0304 30.8102 28.0418C30.8102 29.0533 31.5071 29.902 32.4469 30.1312V30.1304Z" fill="#C63249"/>
<path d="M28.5687 34.0135C28.4047 34.0542 28.2328 34.0761 28.057 34.0761C26.8711 34.0761 25.9086 33.1131 25.9086 31.9249C25.9086 30.7367 26.8711 29.7737 28.057 29.7737C28.2328 29.7737 28.4047 29.7949 28.5687 29.8355C27.6289 30.0655 26.932 30.9135 26.932 31.9249C26.932 32.9364 27.6297 33.7851 28.5687 34.0143V34.0135Z" fill="#C63249"/>
</g>
<defs>
<clipPath id="clip0_1_1121">
<rect width="40" height="40" fill="white"/>
</clipPath>
</defs>
</svg>
