<svg width="32" height="32" viewBox="0 0 32 32" fill="none" xmlns="http://www.w3.org/2000/svg">
<path fill-rule="evenodd" clip-rule="evenodd" d="M5.33334 13.3334C5.33334 7.44269 10.1093 2.66669 16 2.66669C21.8906 2.66669 26.6666 7.44269 26.6666 13.3334C26.6666 18.024 23.5053 23.7453 19.6253 27.6253C18.348 28.9027 16.9987 29.3333 16.0413 29.3333H16C15.0813 29.3467 13.8947 28.984 12.7493 27.9587C12.612 27.8333 12.5053 27.724 12.3747 27.584C8.33068 23.216 5.33334 17.956 5.33334 13.3334ZM16.0029 7.98114C13.0574 7.98114 10.6696 10.369 10.6696 13.3145C10.6696 16.26 13.0574 18.6478 16.0029 18.6478C18.9485 18.6478 21.3363 16.26 21.3363 13.3145C21.3363 10.369 18.9485 7.98114 16.0029 7.98114Z" fill="white" fill-opacity="0.4"/>
<path fill-rule="evenodd" clip-rule="evenodd" d="M16.003 10.6667C14.5302 10.6667 13.3363 11.8606 13.3363 13.3333C13.3363 14.8061 14.5302 16 16.003 16C17.4757 16 18.6696 14.8061 18.6696 13.3333C18.6696 11.8606 17.4757 10.6667 16.003 10.6667ZM10.6696 13.3333C10.6696 10.3878 13.0574 8 16.003 8C18.9485 8 21.3363 10.3878 21.3363 13.3333C21.3363 16.2789 18.9485 18.6667 16.003 18.6667C13.0574 18.6667 10.6696 16.2789 10.6696 13.3333Z" fill="white"/>
</svg>
