<svg width="28" height="28" viewBox="0 0 28 28" fill="none" xmlns="http://www.w3.org/2000/svg">
<path d="M8.93223 15.9693C6.34725 16.8735 4.66667 18.4555 4.66667 20.4167C4.66667 23.5363 8.92804 25.6667 14 25.6667C19.0715 25.6667 23.3333 23.5363 23.3333 20.4167C23.3333 18.4508 21.6242 16.8723 19.0307 15.9693C18.4228 15.757 17.7847 16.0895 17.5723 16.6974C17.3612 17.3064 17.6575 17.9445 18.2653 18.1557C20.0282 18.7705 21 19.677 21 20.4167C21 21.8073 17.9492 23.3333 14 23.3333C10.0513 23.3333 7.00001 21.8073 7.00001 20.4167C7.00001 19.6793 7.94267 18.7705 9.69792 18.1557C10.3061 17.9434 10.6399 17.3064 10.4271 16.6974C10.2143 16.0895 9.54042 15.7558 8.93223 15.9693Z" fill="#64748B" fill-opacity="0.4"/>
<path fill-rule="evenodd" clip-rule="evenodd" d="M8.16411 8.16665C8.16411 4.94548 10.7758 2.33331 13.9974 2.33331C17.2186 2.33331 19.8308 4.94548 19.8308 8.16665C19.8308 9.25865 19.3151 10.6015 18.3724 12.2138C18.1467 12.5998 17.8812 12.9822 17.6049 13.38C17.497 13.5353 17.3875 13.693 17.2781 13.8541C16.7531 14.6288 16.1989 15.428 15.6378 16.1513C15.5606 16.2502 15.4674 16.3727 15.3678 16.5037C15.3018 16.5905 15.233 16.681 15.1641 16.7708V19.8333C15.1641 20.4773 14.6414 21 13.9974 21C13.3534 21 12.8308 20.4773 12.8308 19.8333V16.7708C12.7619 16.681 12.6931 16.5905 12.627 16.5037C12.5275 16.3727 12.4343 16.2502 12.3571 16.1513C11.7959 15.4268 11.2417 14.6288 10.7162 13.8541C10.6078 13.6945 10.4994 13.5382 10.3926 13.3843C10.1154 12.9849 9.84906 12.6012 9.62244 12.2138C8.67989 10.6015 8.16411 9.25865 8.16411 8.16665ZM14 9.31679C14.6443 9.31679 15.1667 8.79446 15.1667 8.15013C15.1667 7.50579 14.6443 6.98346 14 6.98346C13.3557 6.98346 12.8333 7.50579 12.8333 8.15013C12.8333 8.79446 13.3557 9.31679 14 9.31679Z" fill="#64748B"/>
</svg>
