<svg width="16" height="16" viewBox="0 0 16 16" fill="none" xmlns="http://www.w3.org/2000/svg">
<path d="M7.99856 1.33333C6.15762 1.33333 4.66522 2.826 4.66522 4.66667C4.66522 5.29067 4.95996 6.058 5.49856 6.97933C5.67796 7.286 5.90089 7.58867 6.12356 7.91667C6.42382 8.35933 6.74056 8.81533 7.06122 9.22933C7.13456 9.32333 7.23322 9.45467 7.33189 9.58333V11.3333C7.33189 11.7013 7.63056 12 7.99856 12C8.36656 12 8.66522 11.7013 8.66522 11.3333V9.58333C8.76389 9.45467 8.86255 9.32333 8.93589 9.22933C9.25655 8.816 9.57322 8.35933 9.87322 7.91667C10.0959 7.58867 10.3192 7.286 10.4986 6.97933C11.0372 6.058 11.3319 5.29067 11.3319 4.66667C11.3319 2.826 9.83922 1.33333 7.99856 1.33333ZM7.99856 2.66667C9.10322 2.66667 9.99856 3.562 9.99856 4.66667C9.99856 4.984 9.75789 5.56333 9.33189 6.29199C9.16856 6.57066 8.99722 6.88267 8.79056 7.18734C8.54122 7.55467 8.26656 7.9 7.99856 8.25C7.73056 7.9 7.45655 7.55467 7.20655 7.18734C6.99989 6.88267 6.82856 6.57066 6.66522 6.29199C6.23936 5.56333 5.99856 4.984 5.99856 4.66667C5.99856 3.562 6.89389 2.66667 7.99856 2.66667Z" fill="#71717A"/>
<path fill-rule="evenodd" clip-rule="evenodd" d="M8.00002 5.33333C8.36821 5.33333 8.66669 5.03486 8.66669 4.66667C8.66669 4.29848 8.36821 4 8.00002 4C7.63183 4 7.33335 4.29848 7.33335 4.66667C7.33335 5.03486 7.63183 5.33333 8.00002 5.33333ZM2.66669 11.6667C2.66669 10.546 3.62702 9.642 5.10415 9.12533C5.45168 9.00333 5.83675 9.19401 5.95835 9.54135C6.07995 9.88935 5.88922 10.2533 5.54169 10.3747C4.53869 10.726 4.00002 11.2453 4.00002 11.6667C4.00002 12.4613 5.74362 13.3333 8.00002 13.3333C10.2567 13.3333 12 12.4613 12 11.6667C12 11.244 11.4447 10.726 10.4374 10.3747C10.09 10.254 9.92068 9.88935 10.0414 9.54135C10.1627 9.19401 10.5274 9.004 10.8747 9.12533C12.3567 9.64133 13.3334 10.5433 13.3334 11.6667C13.3334 13.4493 10.898 14.6667 8.00002 14.6667C5.10175 14.6667 2.66669 13.4493 2.66669 11.6667Z" fill="#71717A" fill-opacity="0.4"/>
</svg>
