<svg width="25" height="24" viewBox="0 0 25 24" fill="none" xmlns="http://www.w3.org/2000/svg">
<path d="M12.5004 4.63949C14.2199 4.61304 15.8827 5.25348 17.14 6.42641L20.5266 3.11559C18.3538 1.08012 15.4777 -0.0360174 12.5004 0.000886824C10.2759 0.000372914 8.09503 0.618563 6.20179 1.78632C4.30856 2.95409 2.77756 4.62538 1.78003 6.61329L5.66041 9.62533C6.13489 8.18294 7.05026 6.92584 8.27745 6.03132C9.50464 5.13679 10.9817 4.64996 12.5004 4.63949Z" fill="#E43E2B"/>
<path d="M24.02 12.2651C24.0341 11.4404 23.9489 10.6169 23.7662 9.81256H12.5V14.2654H19.1138C18.9884 15.0461 18.7063 15.7934 18.2845 16.4623C17.8628 17.1312 17.31 17.7078 16.6596 18.1577L20.4465 21.0901C21.6267 19.9509 22.5549 18.5769 23.171 17.0568C23.7871 15.5367 24.0775 13.9044 24.0235 12.2651H24.02Z" fill="#3B7DED"/>
<path d="M5.67424 14.3707C5.41187 13.6069 5.27662 12.8053 5.27386 11.9977C5.27864 11.1915 5.40905 10.3909 5.6604 9.62477L1.78001 6.61273C0.938388 8.28329 0.5 10.1278 0.5 11.9983C0.5 13.8688 0.938388 15.7133 1.78001 17.3838L5.67424 14.3707Z" fill="#F0B501"/>
<path d="M12.5002 23.9955C15.4233 24.0782 18.2669 23.0383 20.4468 21.0896L16.6599 18.1572C15.432 18.9802 13.9779 19.3996 12.5002 19.3569C10.9829 19.3479 9.50683 18.8614 8.28156 17.9665C7.05629 17.0715 6.14399 15.8136 5.67409 14.3711L1.7937 17.3843C2.78855 19.3713 4.31703 21.0422 6.20799 22.2099C8.09894 23.3775 10.2777 23.9958 12.5002 23.9955Z" fill="#2BA24C"/>
</svg>
