<svg width="18" height="16" viewBox="0 0 18 16" fill="none" xmlns="http://www.w3.org/2000/svg">
<path d="M12.1914 0.695801H2.55176C1.51237 0.695801 0.666992 1.54118 0.666992 2.58057V11.0278C0.666992 11.4279 1.11943 11.6534 1.4388 11.4253L4.12337 9.50993C4.34863 9.34945 4.61361 9.26448 4.8903 9.26448H10.7949C11.8343 9.26448 12.6797 8.41911 12.6797 7.37972V1.18408C12.6797 0.914551 12.4609 0.695801 12.1914 0.695801ZM9.81966 6.61084H4.17806C3.90853 6.61084 3.68978 6.39242 3.68978 6.12256C3.68978 5.85303 3.90853 5.63428 4.17806 5.63428H9.81966C10.0892 5.63428 10.3079 5.85303 10.3079 6.12256C10.3079 6.39242 10.0892 6.61084 9.81966 6.61084ZM9.81966 4.33219H4.17806C3.90853 4.33219 3.68978 4.11377 3.68978 3.84391C3.68978 3.57438 3.90853 3.35563 4.17806 3.35563H9.81966C10.0892 3.35563 10.3079 3.57438 10.3079 3.84391C10.3079 4.11377 10.0892 4.33219 9.81966 4.33219Z" fill="#F58025"/>
<path d="M17.334 6.368V14.8149C17.334 15.2123 16.8838 15.4422 16.5622 15.2124L13.8776 13.2974C13.6523 13.1369 13.3874 13.0519 13.1107 13.0519H7.20605C6.16667 13.0519 5.32129 12.2062 5.32129 11.1668V10.241H10.7952C12.373 10.241 13.6566 8.95752 13.6566 7.37972V4.48291H15.4492C16.4886 4.48291 17.334 5.32861 17.334 6.368Z" fill="#F58025" fill-opacity="0.4"/>
</svg>
