<svg width="24" height="24" viewBox="0 0 24 24" fill="none" xmlns="http://www.w3.org/2000/svg">
<path d="M7.49902 3C4.46142 3 1.99902 5.46201 1.99902 8.50001C1.99902 11.684 3.81252 14.688 6.81152 17.438C7.83512 18.376 8.93723 19.199 10.0302 19.938C10.4133 20.196 10.7716 20.43 11.0928 20.625C11.2886 20.744 11.4177 20.83 11.499 20.875C11.801 21.043 12.197 21.043 12.499 20.875C12.5803 20.83 12.7094 20.744 12.9052 20.625C13.2264 20.43 13.5847 20.196 13.9678 19.938C15.0608 19.199 16.1629 18.376 17.1865 17.438C20.1855 14.688 21.999 11.684 21.999 8.50001C21.999 5.46201 19.5366 3 16.499 3C14.7738 3 13.0894 3.94001 12.0302 5.31202C10.9974 3.91601 9.31893 3 7.49902 3ZM7.49902 5C8.71292 5 9.84653 5.61602 10.499 6.56202C10.5624 6.65402 11.0623 7.38902 11.1552 7.53102C11.5421 8.12402 12.4053 8.14202 12.8115 7.56202C12.9103 7.42102 13.4306 6.689 13.499 6.594C14.1801 5.642 15.3722 5 16.499 5C18.432 5 19.999 6.56701 19.999 8.50001C19.999 11.003 18.4375 13.53 15.8115 15.938C14.8663 16.804 13.8591 17.594 12.8428 18.281C12.5355 18.489 12.2614 18.651 11.999 18.812C11.7366 18.651 11.4625 18.489 11.1552 18.281C10.1389 17.594 9.13173 16.804 8.18652 15.938C5.56052 13.53 3.99902 11.003 3.99902 8.50001C3.99902 6.56701 5.56602 5 7.49902 5Z" fill="#4A43EC"/>
<path d="M7.5 5C8.7139 5 9.8475 5.61601 10.5 6.56202C10.5634 6.65402 11.0633 7.38901 11.1562 7.53101C11.5431 8.12401 12.4063 8.14202 12.8125 7.56202C12.9113 7.42102 13.4316 6.689 13.5 6.594C14.1811 5.642 15.3732 5 16.5 5C18.433 5 20 6.567 20 8.50001C20 11.003 18.4385 13.53 15.8125 15.938C14.8673 16.804 13.8601 17.594 12.8438 18.281C12.5365 18.489 12.2624 18.651 12 18.812C11.7376 18.651 11.4635 18.489 11.1562 18.281C10.1399 17.594 9.1327 16.804 8.1875 15.938C5.5615 13.53 4 11.003 4 8.50001C4 6.567 5.567 5 7.5 5Z" fill="#4A43EC" fill-opacity="0.4"/>
</svg>
