<svg width="40" height="35" viewBox="0 0 40 35" fill="none" xmlns="http://www.w3.org/2000/svg">
<path d="M13.4862 5.29285C13.4909 6.65399 12.3928 7.76159 11.0316 7.76708H4.15998C2.80904 7.74432 1.72656 6.643 1.72656 5.29207C1.72656 3.94113 2.80982 2.83981 4.15998 2.81705C4.37584 2.81705 4.59014 2.84688 4.79816 2.90654C5.17573 1.67806 6.3108 0.838135 7.59659 0.838135C8.88237 0.838135 10.0174 1.67727 10.3942 2.90654C10.6015 2.84688 10.8158 2.81705 11.0316 2.81705C12.3928 2.82333 13.4917 3.93093 13.4862 5.29207V5.29285Z" fill="#E2CCBD"/>
<path d="M24.2686 9.34014C24.3267 9.22554 24.4444 9.15332 24.5731 9.15332C24.7019 9.15332 24.8196 9.22554 24.8777 9.34014L38.4318 34.7921H11.4076L24.2686 9.34014Z" fill="#A46130"/>
<path d="M30.352 34.7943L14.653 5.05131C14.5921 4.93274 14.4703 4.85803 14.338 4.85803C14.2056 4.85803 14.083 4.93274 14.0221 5.05131L0 34.9656L30.352 34.7943Z" fill="#CFAB91"/>
<path d="M28.093 15.3758L27.3308 16.5603L27.0466 17.0038C26.9595 17.1687 26.8033 17.2856 26.6211 17.3233C26.439 17.361 26.2491 17.3147 26.1038 17.1985L25.0441 16.3531C24.9154 16.2495 24.7498 16.2016 24.5857 16.2212C24.4216 16.2408 24.2717 16.3256 24.1705 16.4567L23.6508 17.0737L21.967 13.893L23.8863 10.089L24.2678 9.34014C24.3259 9.22554 24.4436 9.15332 24.5724 9.15332C24.7011 9.15332 24.8188 9.22554 24.8769 9.34014L28.0922 15.3758H28.093Z" fill="#F0E6DE"/>
<path d="M17.7787 10.9656L16.7604 11.7687L14.8967 13.2451C14.5816 13.5033 14.1382 13.5317 13.7923 13.3165L10.7454 11.4813L13.6282 5.82517L14.0221 5.05045C14.083 4.93189 14.2048 4.85718 14.338 4.85718C14.4711 4.85718 14.593 4.93189 14.6531 5.05045L17.7787 10.9648V10.9656Z" fill="#F0E6DE"/>
<path d="M39.125 5.29285C39.1305 6.65399 38.0323 7.76159 36.6711 7.76708H29.7995C28.4486 7.74432 27.3661 6.643 27.3661 5.29207C27.3661 3.94113 28.4494 2.83981 29.7995 2.81705C30.0154 2.81705 30.2297 2.84688 30.4377 2.90654C30.8145 1.67806 31.9495 0.838135 33.2353 0.838135C34.5211 0.838135 35.6562 1.67727 36.033 2.90654C36.2402 2.84688 36.4553 2.81705 36.6711 2.81705C38.0323 2.82333 39.1305 3.93171 39.125 5.29207V5.29285Z" fill="#E2CCBD"/>
<path d="M30.3521 34.7943C29.6458 34.7935 29.042 34.7935 28.727 34.7935L20.9767 19.7466L20.2459 18.3628L16.7621 11.768L17.7804 10.9648L20.9491 16.9717L21.68 18.3628L30.3537 34.7935L30.3521 34.7943Z" fill="#C29675"/>
<path d="M17.7787 10.9656L16.7603 11.7687L13.6282 5.82517L14.022 5.05045C14.0829 4.93189 14.2047 4.85718 14.3379 4.85718C14.4711 4.85718 14.5929 4.93189 14.653 5.05045L17.7787 10.9648V10.9656Z" fill="#E2CCBD"/>
<path d="M38.2459 34.4978C38.1823 34.4868 38.1171 34.4813 38.052 34.4837H36.8533L27.3308 16.5604L28.093 15.3759L38.2459 34.4978Z" fill="#9A4F1A"/>
<path d="M28.093 15.3758L27.3308 16.5604L23.8871 10.0883L24.2686 9.33941C24.3267 9.22481 24.4444 9.15259 24.5731 9.15259C24.7019 9.15259 24.8196 9.22481 24.8777 9.33941L28.093 15.3751V15.3758Z" fill="#E2CCBD"/>
</svg>
