<svg width="25" height="24" viewBox="0 0 25 24" fill="none" xmlns="http://www.w3.org/2000/svg">
<path fill-rule="evenodd" clip-rule="evenodd" d="M13.9341 4.44103C13.3487 3.85299 12.4013 3.85299 11.8159 4.44103L4.58368 11.7055C4.38829 11.9018 4.13166 12 3.875 12V17C3.875 19.2091 5.66586 21 7.875 21L9.875 21V16C9.875 14.3431 11.2181 13 12.875 13C14.5319 13 15.875 14.3431 15.875 16V21L17.875 21C20.0841 21 21.875 19.2091 21.875 17V12C21.6183 12 21.3617 11.9018 21.1663 11.7055L13.9341 4.44103Z" fill="#64748B" fill-opacity="0.4"/>
<path fill-rule="evenodd" clip-rule="evenodd" d="M11.8159 4.44103C12.4013 3.85299 13.3487 3.85299 13.9341 4.44103L21.1663 11.7055C21.556 12.0969 22.1891 12.0983 22.5805 11.7087C22.9719 11.319 22.9733 10.6859 22.5837 10.2945L15.3514 3.02997C13.9843 1.65668 11.7657 1.65668 10.3986 3.02997L3.16632 10.2945C2.77667 10.6859 2.77808 11.319 3.16947 11.7087C3.56086 12.0983 4.19402 12.0969 4.58368 11.7055L11.8159 4.44103ZM12.875 13C11.2181 13 9.875 14.3431 9.875 16V21H15.875V16C15.875 14.3431 14.5319 13 12.875 13Z" fill="#64748B"/>
</svg>
