<svg width="40" height="40" viewBox="0 0 40 40" fill="none" xmlns="http://www.w3.org/2000/svg">
<g clip-path="url(#clip0_57_5426)">
<g clip-path="url(#clip1_57_5426)">
<g clip-path="url(#clip2_57_5426)">
<path d="M20 40C19.6315 40 19.2836 39.826 19.0616 39.5308L7.80289 24.3553C5.81617 21.7037 4.76562 18.5498 4.76562 15.2344C4.76562 6.83438 11.6 0 20 0C28.4 0 35.2344 6.83438 35.2344 15.2344C35.2344 18.5498 34.1838 21.7037 32.1971 24.3553L20.9384 39.5308C20.7164 39.826 20.3685 40 20 40Z" fill="url(#paint0_linear_57_5426)"/>
<path d="M29.0316 17.2348C28.5739 17.6925 27.8323 17.6925 27.3745 17.2348L27.0313 16.8915V22.2656C27.0313 22.9134 26.5071 23.4375 25.8594 23.4375H21.1719V17.5781C21.1719 16.9304 20.6477 16.4063 20 16.4063C19.3523 16.4063 18.8281 16.9304 18.8281 17.5781V23.4375H14.1406C13.4929 23.4375 12.9688 22.9134 12.9688 22.2656V16.8915L12.6254 17.2348C12.1677 17.6926 11.426 17.6926 10.9683 17.2348C10.5106 16.7771 10.5106 16.0355 10.9683 15.5777L19.1714 7.37461C19.6291 6.91688 20.3708 6.91688 20.8285 7.37461L29.0316 15.5777C29.4895 16.0355 29.4895 16.777 29.0316 17.2348Z" fill="url(#paint1_linear_57_5426)"/>
</g>
</g>
</g>
<defs>
<linearGradient id="paint0_linear_57_5426" x1="20" y1="40" x2="20" y2="0" gradientUnits="userSpaceOnUse">
<stop stop-color="#A93AFF"/>
<stop offset="1" stop-color="#FF81FF"/>
</linearGradient>
<linearGradient id="paint1_linear_57_5426" x1="20" y1="23.4375" x2="20" y2="7.03125" gradientUnits="userSpaceOnUse">
<stop stop-color="#FFBEF9"/>
<stop offset="1" stop-color="#FFF1FF"/>
</linearGradient>
<clipPath id="clip0_57_5426">
<rect width="40" height="40" rx="20" fill="white"/>
</clipPath>
<clipPath id="clip1_57_5426">
<rect width="40" height="40" rx="20" fill="white"/>
</clipPath>
<clipPath id="clip2_57_5426">
<rect width="40" height="40" fill="white"/>
</clipPath>
</defs>
</svg>
