<svg width="40" height="40" viewBox="0 0 40 40" fill="none" xmlns="http://www.w3.org/2000/svg">
<g clip-path="url(#clip0_1_1144)">
<path d="M20.0692 7.72659C20.3957 5.87261 19.1575 4.10493 17.3036 3.77836C15.4496 3.45179 13.6819 4.68999 13.3553 6.54397C13.0288 8.39794 14.267 10.1656 16.121 10.4922C17.9749 10.8188 19.7426 9.58056 20.0692 7.72659Z" fill="#E296D3"/>
<path d="M6.06484 13.9781C7.94736 13.9781 9.47344 12.4521 9.47344 10.5695C9.47344 8.68703 7.94736 7.16095 6.06484 7.16095C4.18233 7.16095 2.65625 8.68703 2.65625 10.5695C2.65625 12.4521 4.18233 13.9781 6.06484 13.9781Z" fill="#E296D3"/>
<path d="M15.218 8.84844C14.9055 8.84844 14.6406 8.60703 14.6164 8.29062C14.543 7.31953 15.0109 6.39687 15.8375 5.88281L15.9133 5.83515C16.1961 5.65937 16.5688 5.74531 16.7445 6.0289C16.9211 6.31172 16.8344 6.68437 16.5508 6.86015L16.475 6.90781C16.0313 7.18359 15.7805 7.6789 15.8203 8.19922C15.8453 8.53125 15.5961 8.82187 15.2641 8.84687C15.2484 8.84844 15.2328 8.84844 15.218 8.84844Z" fill="#DC81CA"/>
<path d="M7.8961 11.2594C7.69297 11.2594 7.49453 11.1563 7.38047 10.9703C7.10781 10.5242 6.61563 10.2695 6.09453 10.3047L6.00547 10.3109C5.67344 10.3336 5.38516 10.082 5.3625 9.74922C5.33985 9.41641 5.59141 9.12891 5.92422 9.10625L6.01328 9.1C6.98516 9.03438 7.90391 9.51016 8.41094 10.3406C8.58438 10.625 8.49453 10.9969 8.21016 11.1703C8.11172 11.2305 8.00313 11.2586 7.8961 11.2586V11.2594Z" fill="#DC81CA"/>
<path d="M25.3234 19.1492L20.2726 14.7664L23.4758 11.075C24.1273 10.3242 25.264 10.2438 26.0148 10.8953L28.3469 12.9188C29.0976 13.5703 29.1781 14.707 28.5266 15.4578L25.3234 19.1492Z" fill="#E6A7DA"/>
<path d="M21.0508 20.768L16.3219 16.0391L19.7781 12.5828C20.4813 11.8797 21.6211 11.8797 22.3235 12.5828L24.5063 14.7656C25.2094 15.4688 25.2094 16.6086 24.5063 17.311L21.0508 20.7672V20.768Z" fill="#E090D0"/>
<path d="M17.0211 15.3406L16.3227 16.0391L15.3445 19.8898L21.0516 20.7672L24.4688 17.35C25.0117 16.8062 25.1477 16.0102 24.8758 15.3398H17.0211V15.3406Z" fill="#DB7FC9"/>
<path d="M8.98595 17.3234C8.25783 16.675 7.68751 15.8297 7.36642 14.8344C6.40626 11.857 8.04142 8.66483 11.0188 7.70468C13.9961 6.74452 17.1883 8.37968 18.1485 11.357C19.1086 14.3344 17.4735 17.5266 14.4961 18.4867C12.5141 19.1258 10.4367 18.6148 8.98595 17.3234Z" fill="#D66CC1"/>
<path d="M17.9562 15.3406C17.3312 16.7859 16.1125 17.9656 14.4961 18.4867C11.6922 19.3906 8.69919 17.993 7.55701 15.3406H17.9562Z" fill="#C940AE"/>
<path d="M28.1656 29.4664L29.2304 21.3914L16.0453 19.782L4.03357 21.3914L5.09841 29.4664L16.3531 30.0719L28.1656 29.4664Z" fill="#E7ABDC"/>
<path d="M28.1656 29.4664L29.2305 21.3914L28.1656 19.782L26.4977 21.3914L25.3531 30.0727L28.1664 29.4672L28.1656 29.4664Z" fill="#E194D2"/>
<path d="M12.9227 14.7851C13.7947 14.7851 14.5016 14.0782 14.5016 13.2062C14.5016 12.3342 13.7947 11.6273 12.9227 11.6273C12.0507 11.6273 11.3438 12.3342 11.3438 13.2062C11.3438 14.0782 12.0507 14.7851 12.9227 14.7851Z" fill="#F2D1EC"/>
<path d="M29.8782 21.3906H3.38596C3.04846 21.3906 2.77502 21.1172 2.77502 20.7797V17.9344C2.77502 17.5969 3.04846 17.3234 3.38596 17.3234H29.8782C30.2157 17.3234 30.4891 17.5969 30.4891 17.9344V20.7797C30.4891 21.1172 30.2157 21.3906 29.8782 21.3906Z" fill="#E6A7DA"/>
<path d="M29.8594 17.3226H27.4445C27.7922 17.3226 28.0742 17.6047 28.0742 17.9523V20.7609C28.0742 21.1086 27.7922 21.3906 27.4445 21.3906H29.8594C30.207 21.3906 30.4891 21.1086 30.4891 20.7609V17.9523C30.4891 17.6047 30.207 17.3226 29.8594 17.3226Z" fill="#DA7AC7"/>
<path d="M5.09845 29.4664L5.92423 35.7297C6.0547 36.7219 6.90079 37.4625 7.90079 37.4625H25.3625C26.3625 37.4625 27.2086 36.7211 27.3391 35.7297L28.1649 29.4664H5.09845Z" fill="#D568BF"/>
<path d="M25.432 29.4664L24.9242 33.3149C24.7937 34.3071 23.9476 35.0477 22.9476 35.0477H5.83435L5.92419 35.7297C6.05466 36.7219 6.90076 37.4625 7.90076 37.4625H25.3625C26.3625 37.4625 27.2086 36.7211 27.339 35.7297L28.1648 29.4664H25.432Z" fill="#CE52B6"/>
<path d="M10.9063 40.0086C12.3124 40.0086 13.4524 38.8686 13.4524 37.4625C13.4524 36.0563 12.3124 34.9164 10.9063 34.9164C9.50009 34.9164 8.36017 36.0563 8.36017 37.4625C8.36017 38.8686 9.50009 40.0086 10.9063 40.0086Z" fill="#E6A7DA"/>
<path d="M24.8906 37.7104C25.029 36.3111 24.0068 35.0645 22.6075 34.926C21.2082 34.7876 19.9616 35.8097 19.8231 37.2091C19.6847 38.6084 20.7068 39.855 22.1062 39.9935C23.5055 40.1319 24.7521 39.1097 24.8906 37.7104Z" fill="#E6A7DA"/>
<path d="M21.9555 23.2352L21.8383 23.1609C21.0672 22.6719 20.8383 21.65 21.3273 20.8789L34.3492 0.349213C34.5711 -0.000787295 35.0359 -0.104694 35.3859 0.117181L37.0281 1.15859C37.3781 1.38046 37.482 1.84453 37.2602 2.19531L24.2375 22.725C23.7484 23.4961 22.7266 23.725 21.9555 23.2359V23.2352Z" fill="#DB7FC9"/>
</g>
<defs>
<clipPath id="clip0_1_1144">
<rect width="40" height="40" fill="white"/>
</clipPath>
</defs>
</svg>
