<svg width="18" height="18" viewBox="0 0 18 18" fill="none" xmlns="http://www.w3.org/2000/svg">
<path d="M5.57047 17.3322C6.6468 17.3046 7.68553 16.8067 8.59557 15.8947L9.8733 14.6145C10.1992 14.2881 10.1992 13.7652 9.8733 13.4389C9.54739 13.1125 8.99919 13.1125 8.67329 13.4389L7.4223 14.7191C6.21143 15.9323 4.86851 16.0537 3.5373 14.7191C2.20525 13.3853 2.32642 12.0398 3.5373 10.8266L6.06602 8.2921C7.2769 7.07883 8.61981 6.95834 9.95102 8.2921L10.3162 8.65774C11.1026 9.44594 12.2767 8.27033 11.4895 7.48212L11.1243 7.11649C9.08861 5.07653 6.71282 5.29324 4.89274 7.11649L2.36402 9.65095C0.543947 11.4742 0.327511 13.8547 2.36402 15.8947C3.38186 16.9147 4.49497 17.3589 5.57047 17.3322Z" fill="black" fill-opacity="0.4"/>
<path d="M10.729 12.3254C11.7341 12.2602 12.7125 11.7785 13.6013 10.8895L16.1337 8.35629C18.1733 6.31737 17.9565 3.93806 16.1337 2.11575C14.3118 0.293429 11.9316 0.0768251 9.89292 2.11575L8.61329 3.3953C8.28689 3.72146 8.28689 4.24415 8.61329 4.57031C8.93968 4.89647 9.48869 4.89647 9.81509 4.57031L11.0679 3.29076C12.402 1.95685 13.746 2.07811 14.9587 3.29076C16.1714 4.50341 16.2927 5.84737 14.9587 7.18128L12.4262 9.71445C11.8111 10.3291 11.2035 10.6168 10.6244 10.6545C9.92388 10.7005 9.18908 10.3684 8.53545 9.71445L8.16973 9.34898C7.84333 9.02282 7.32111 9.02282 6.99471 9.34898C6.66832 9.67514 6.66832 10.1978 6.99471 10.524L7.36044 10.8895C8.32874 11.8579 9.49539 12.4065 10.729 12.3254Z" fill="black"/>
</svg>
