<svg width="25" height="24" viewBox="0 0 25 24" fill="none" xmlns="http://www.w3.org/2000/svg">
<path fill-rule="evenodd" clip-rule="evenodd" d="M21.9597 4.18877C22.2205 4.37672 22.375 4.67856 22.375 5.00001V17C22.375 17.4304 22.0996 17.8126 21.6912 17.9487L15.6912 19.9487C15.486 20.0171 15.264 20.0171 15.0588 19.9487L9.375 18.0541L3.69123 19.9487C3.38628 20.0503 3.05106 19.9992 2.79029 19.8112C2.52952 19.6233 2.375 19.3215 2.375 19V7.00001C2.375 6.56958 2.65043 6.18744 3.05877 6.05132L9.05877 4.05132C9.26404 3.9829 9.48596 3.9829 9.69123 4.05132L15.375 5.94591L21.0588 4.05132C21.3637 3.94967 21.6989 4.00081 21.9597 4.18877ZM4.375 7.72077V17.6126L9.05877 16.0513C9.26404 15.9829 9.48596 15.9829 9.69123 16.0513L15.375 17.9459L20.375 16.2792V6.38743L15.6912 7.94869C15.486 8.01711 15.264 8.01711 15.0588 7.94869L9.375 6.0541L4.375 7.72077Z" fill="#64748B"/>
<path fill-rule="evenodd" clip-rule="evenodd" d="M8.375 6.38741V16.2792L9.05877 16.0513C9.26404 15.9829 9.48596 15.9829 9.69123 16.0513L10.375 16.2792V6.38741L9.375 6.05408L8.375 6.38741ZM14.375 7.72074V17.6126L15.375 17.9459L16.375 17.6126V7.72074L15.6912 7.94867C15.486 8.01709 15.264 8.01709 15.0588 7.94867L14.375 7.72074Z" fill="#64748B" fill-opacity="0.4"/>
</svg>
