<svg width="41" height="40" viewBox="0 0 41 40" fill="none" xmlns="http://www.w3.org/2000/svg">
<path d="M37.816 36.9986H19.7224C19.1084 36.9986 18.6097 36.4952 18.6097 35.8753C18.6097 35.2555 19.1084 34.752 19.7224 34.752H37.816C38.43 34.752 38.9287 35.2555 38.9287 35.8753C38.9287 36.4952 38.43 36.9986 37.816 36.9986Z" fill="#786DEF"/>
<path d="M19.7225 37C29.0402 37 36.5936 29.3941 36.5936 20.0117C36.5936 10.6294 29.0402 3.02344 19.7225 3.02344C10.4049 3.02344 2.85144 10.6294 2.85144 20.0117C2.85144 29.3941 10.4049 37 19.7225 37Z" fill="#BEB9F8"/>
<path d="M19.7239 14.5845C22.0163 14.5845 23.8746 12.7135 23.8746 10.4055C23.8746 8.09747 22.0163 6.22644 19.7239 6.22644C17.4315 6.22644 15.5731 8.09747 15.5731 10.4055C15.5731 12.7135 17.4315 14.5845 19.7239 14.5845Z" fill="#786DEF"/>
<path d="M30.0772 21.0144C27.8977 21.7282 25.5556 20.5264 24.8471 18.3331C24.1387 16.1384 25.3319 13.781 27.5115 13.0672C29.691 12.3534 32.0317 13.5552 32.7416 15.75C33.4501 17.9447 32.2568 20.302 30.0772 21.0158V21.0144Z" fill="#786DEF"/>
<path d="M21.9743 30.2336C20.6268 28.3671 21.0366 25.753 22.8911 24.3969C24.7456 23.0395 27.3405 23.4532 28.688 25.3197C30.0355 27.1863 29.6257 29.7989 27.7712 31.1564C25.9167 32.5139 23.3218 32.1002 21.9743 30.2336Z" fill="#786DEF"/>
<path d="M10.7612 25.3253C12.1072 23.4573 14.7022 23.0436 16.558 24.3983C18.4125 25.7544 18.8251 28.367 17.4777 30.235C16.1302 32.1029 13.5367 32.5166 11.6808 31.1605C9.82628 29.8045 9.4137 27.1918 10.7612 25.3253Z" fill="#786DEF"/>
<path d="M11.9322 13.0714C14.1118 13.7838 15.3064 16.1398 14.5994 18.3359C13.8923 20.5306 11.5516 21.7338 9.37064 21.0214C7.19108 20.309 5.99642 17.9516 6.70349 15.7569C7.41057 13.5622 9.75127 12.3604 11.9322 13.0714Z" fill="#786DEF"/>
<path opacity="0.1" d="M18.5806 10.4055C18.5806 8.6315 19.678 7.11695 21.2269 6.51113C20.7602 6.32882 20.2531 6.22784 19.7225 6.22784C17.4304 6.22784 15.5731 8.09861 15.5731 10.4069C15.5731 12.7152 17.4318 14.586 19.7225 14.586C20.2531 14.586 20.7602 14.485 21.2269 14.3027C19.678 13.6955 18.5806 12.1809 18.5806 10.4083V10.4055Z" fill="black"/>
<path opacity="0.1" d="M14.6896 31.1605C12.8351 29.8045 12.4225 27.1918 13.77 25.3253C14.2576 24.6494 14.9077 24.1655 15.6259 23.8851C13.9103 23.2119 11.8947 23.7546 10.7625 25.3253C9.41645 27.1933 9.82763 29.8059 11.6821 31.1605C12.8657 32.0258 14.3521 32.1689 15.6217 31.6738C15.2967 31.5462 14.9841 31.3765 14.6896 31.1605Z" fill="black"/>
<path opacity="0.1" d="M9.71099 15.7556C10.1111 14.5145 11.0334 13.5903 12.1545 13.1514C12.0809 13.1233 12.0072 13.0953 11.9322 13.0714C9.75127 12.359 7.41057 13.5608 6.7035 15.757C5.99643 17.9517 7.1897 20.309 9.37065 21.0214C10.318 21.3314 11.2946 21.2781 12.1559 20.9415C10.118 20.1464 9.02892 17.8773 9.71238 15.7584L9.71099 15.7556Z" fill="black"/>
<path d="M18.5584 22.2583C17.2249 21.5754 16.6956 19.9332 17.3735 18.5911C18.0528 17.2491 19.6836 16.7148 21.0172 17.3991C22.3494 18.0821 22.88 19.7242 22.2008 21.0677C21.5215 22.4098 19.8906 22.9441 18.557 22.2597L18.5584 22.2583Z" fill="#786DEF"/>
</svg>
