<svg width="41" height="40" viewBox="0 0 41 40" fill="none" xmlns="http://www.w3.org/2000/svg">
<path d="M32.4991 17.0704V12.7583C32.4991 12.0543 31.9231 11.2075 31.22 10.8745L16.9573 4.14149C16.2533 3.80943 15.6782 4.11366 15.6782 4.81673V9.12885L24.0891 14.7915L32.5 17.0695L32.4991 17.0704Z" fill="#F1DC54"/>
<path d="M27.3671 35.328C23.067 36.0886 22.0143 33.1335 22.2322 32.6632C22.8611 31.3034 24.3637 30.3054 26.5379 29.9205C28.2065 29.6255 29.9104 29.9103 31.067 30.2099C31.9389 30.4362 31.6681 34.5674 27.368 35.328H27.3671Z" fill="#F1DC54"/>
<path d="M11.9802 28.0635C7.68017 28.8241 6.62742 25.8689 6.84539 25.3987C7.47426 24.0389 8.97687 23.0409 11.151 22.6559C12.8197 22.361 14.5235 22.6457 15.6802 22.9453C16.5521 23.1716 16.2812 27.3029 11.9812 28.0635H11.9802Z" fill="#F1DC54"/>
<path d="M32.4992 17.0704L15.6774 9.12976V22.9454C15.6774 25.421 14.0125 27.0006 11.8115 27.3892C9.53437 27.7918 7.59303 26.842 6.84358 25.3988C6.62654 25.869 6.51245 26.3829 6.51245 26.9301C6.51245 29.057 8.88509 30.7748 11.8115 30.2563C14.7378 29.7378 17.1105 27.5182 17.1105 23.4055V12.672L31.0653 19.2594V30.209C31.0653 32.6846 29.4003 34.2641 27.1993 34.6528C24.9222 35.0553 22.9809 34.1055 22.2314 32.6623C22.0144 33.1326 21.9003 33.6464 21.9003 34.1937C21.9003 36.3205 24.2729 38.0383 27.1993 37.5198C30.1257 37.0013 32.4983 34.7817 32.4983 30.669V17.0695L32.4992 17.0704Z" fill="#EBCB00"/>
<path d="M37.0977 25.1492C37.7643 25.1492 38.3047 24.6088 38.3047 23.9421C38.3047 23.2755 37.7643 22.7351 37.0977 22.7351C36.431 22.7351 35.8906 23.2755 35.8906 23.9421C35.8906 24.6088 36.431 25.1492 37.0977 25.1492Z" fill="#F1DC54"/>
<path d="M10.9773 6.95154C11.6439 6.95154 12.1843 6.41113 12.1843 5.74451C12.1843 5.07788 11.6439 4.53748 10.9773 4.53748C10.3107 4.53748 9.77026 5.07788 9.77026 5.74451C9.77026 6.41113 10.3107 6.95154 10.9773 6.95154Z" fill="#F1DC54"/>
<path d="M7.35547 33.7828C8.02209 33.7828 8.5625 33.2424 8.5625 32.5758C8.5625 31.9092 8.02209 31.3688 7.35547 31.3688C6.68884 31.3688 6.14844 31.9092 6.14844 32.5758C6.14844 33.2424 6.68884 33.7828 7.35547 33.7828Z" fill="#F1DC54"/>
<path d="M32.7336 3.51405C31.186 3.51405 27.8656 2.35389 27.4985 3.26092C27.2547 3.86248 27.193 4.54373 27.3625 5.22108C28.043 7.93514 30.2922 8.40389 34.6469 10.4359C37.5281 6.58905 39.2906 5.11561 38.6102 2.40076C38.5992 2.35779 38.5875 2.31483 38.575 2.27186C38.0961 0.649982 34.2813 3.51326 32.7336 3.51326V3.51405Z" fill="#EBCB00"/>
<path d="M34.7625 0.0960678C33.7032 0.361693 32.9024 1.13201 32.554 2.08591C31.7961 1.40935 30.7274 1.10779 29.668 1.37341C28.6461 1.62966 27.8665 2.35466 27.4993 3.26091C28.3149 5.58044 30.5477 6.10857 34.6469 8.02185C36.6305 5.37419 38.0829 3.85076 38.5743 2.27341C38.0954 0.651537 36.418 -0.318776 34.7625 0.0968491V0.0960678Z" fill="#F1DC54"/>
<path d="M3.10386 10.9531C2.54839 13.1695 3.98746 14.3734 6.3398 17.514C9.89605 15.8546 11.7328 15.4718 12.2882 13.2554C12.4468 12.6242 12.3585 11.9882 12.0835 11.4499C11.8898 11.0695 9.93511 11.7195 7.49683 11.5101C5.81246 11.3656 3.40074 10.139 3.20855 10.6249C3.16714 10.7304 3.13121 10.8398 3.10308 10.9523L3.10386 10.9531Z" fill="#EBCB00"/>
<path d="M10.4055 10.1141C9.53987 9.89689 8.66721 10.1438 8.04846 10.6961C7.76331 9.9172 7.11018 9.28829 6.24456 9.07111C4.97034 8.75157 3.68049 9.43751 3.20862 10.6258C3.67034 11.8391 4.81174 13.0609 6.33831 15.1C9.54065 13.6055 11.3477 13.1461 12.0821 11.4508C11.7539 10.807 11.1602 10.3031 10.4047 10.1133L10.4055 10.1141Z" fill="#F1DC54"/>
<path d="M14.093 36.5336C13.7992 37.7047 14.5594 38.3406 15.8031 40C17.682 39.1234 18.6523 38.9211 18.9461 37.75C19.0453 37.3539 18.9609 36.9555 18.7476 36.6437C18.5656 36.3781 17.6289 36.9609 16.707 36.9609C15.7851 36.9609 14.518 35.6734 14.225 36.2023C14.1687 36.3039 14.1242 36.4148 14.0945 36.5336H14.093Z" fill="#EBCB00"/>
<path d="M17.9508 36.0898C17.4938 35.975 17.0328 36.1054 16.7055 36.3976C16.5547 35.9859 16.2102 35.6539 15.7524 35.539C15.1375 35.3851 14.5172 35.6742 14.2242 36.2031C14.5047 36.789 15.0696 37.4117 15.8024 38.3906C17.3735 37.657 18.3094 37.3953 18.7453 36.6445C18.5633 36.3789 18.2883 36.175 17.9508 36.0906V36.0898Z" fill="#F1DC54"/>
<path d="M35.1656 33.9843C34.832 33.9843 34.5617 33.714 34.5617 33.3804V31.9343L33.407 31.4601C33.0985 31.3335 32.9516 30.9812 33.0781 30.6726C33.2047 30.364 33.557 30.2171 33.8656 30.3437L34.5617 30.6296V29.6789C34.5617 29.3453 34.832 29.075 35.1656 29.075C35.4992 29.075 35.7695 29.3453 35.7695 29.6789V31.125L36.9242 31.5992C37.2328 31.7257 37.3797 32.0781 37.2531 32.3867C37.1266 32.6953 36.7742 32.8421 36.4656 32.7156L35.7695 32.4296V33.3804C35.7695 33.714 35.4992 33.9843 35.1656 33.9843Z" fill="#EBCB00"/>
</svg>
