<svg width="20" height="20" viewBox="0 0 20 20" fill="none" xmlns="http://www.w3.org/2000/svg">
<path fill-rule="evenodd" clip-rule="evenodd" d="M1.66667 7.5V13.3333C1.66667 15.1743 3.15905 16.6667 5 16.6667H15C16.8409 16.6667 18.3333 15.1743 18.3333 13.3333V7.5C18.065 7.72671 17.7954 7.9375 17.5231 8.15033C17.3959 8.24975 17.2682 8.3496 17.1398 8.45173C16.9955 8.56641 16.837 8.69126 16.6667 8.82365V13.3333C16.6667 14.2538 15.9205 15 15 15H5C4.07952 15 3.33333 14.2538 3.33333 13.3333V8.82365C3.16299 8.69126 3.00446 8.56641 2.86025 8.45173C2.73181 8.3496 2.60407 8.24974 2.47689 8.15033C2.20464 7.9375 1.93499 7.7267 1.66667 7.5Z" fill="black" fill-opacity="0.4"/>
<path fill-rule="evenodd" clip-rule="evenodd" d="M1.66667 6.66668C1.66667 4.82573 3.15905 3.33334 5 3.33334H15C16.8409 3.33334 18.3333 4.82573 18.3333 6.66668V7.50001C17.9397 7.83261 17.5432 8.13097 17.1398 8.45174C16.5918 8.8875 15.8369 9.47025 15.0135 10.0546C14.1933 10.6367 13.2891 11.2318 12.4448 11.6848C11.6436 12.1148 10.7499 12.5 10 12.5C9.25014 12.5 8.35644 12.1148 7.5552 11.6848C6.71092 11.2318 5.80673 10.6367 4.98646 10.0546C4.16305 9.47025 3.40824 8.8875 2.86025 8.45174C2.45685 8.13097 2.06032 7.83261 1.66667 7.50001V6.66668ZM3.33333 6.69187C3.4773 6.80991 3.66897 6.96546 3.89757 7.14724C4.4303 7.57085 5.15986 8.13394 5.95104 8.69542C6.74535 9.25913 7.58595 9.80988 8.34323 10.2162C9.14356 10.6457 9.70819 10.8333 10 10.8333C10.2918 10.8333 10.8564 10.6457 11.6568 10.2162C12.414 9.80988 13.2546 9.25913 14.049 8.69542C14.8401 8.13394 15.5697 7.57085 16.1024 7.14724C16.331 6.96546 16.5227 6.80991 16.6667 6.69187V6.66668C16.6667 5.7462 15.9205 5.00001 15 5.00001H5C4.07952 5.00001 3.33333 5.7462 3.33333 6.66668V6.69187Z" fill="black"/>
</svg>
