<svg width="40" height="40" viewBox="0 0 40 40" fill="none" xmlns="http://www.w3.org/2000/svg">
<rect width="40" height="40" rx="20" fill="white" fill-opacity="0.1"/>
<path fill-rule="evenodd" clip-rule="evenodd" d="M17 29C17 28.4477 17.4477 28 18 28H22C22.5523 28 23 28.4477 23 29C23 29.5523 22.5523 30 22 30H18C17.4477 30 17 29.5523 17 29Z" fill="white" fill-opacity="0.4"/>
<path fill-rule="evenodd" clip-rule="evenodd" d="M14 16C14 12.6863 16.6863 10 20 10C23.3137 10 26 12.6863 26 16V17.7574C26 18.2878 26.2107 18.7965 26.5858 19.1716L28.1213 20.7071C28.6839 21.2697 29 22.0328 29 22.8284V23C29 24.6569 27.6569 26 26 26H14C12.3431 26 11 24.6569 11 23V22.8284C11 22.0328 11.3161 21.2697 11.8787 20.7071L13.4142 19.1716C13.7893 18.7965 14 18.2878 14 17.7574V16ZM20 12C17.7909 12 16 13.7909 16 16V17.7574C16 18.8182 15.5786 19.8356 14.8284 20.5858L13.2929 22.1213C13.1054 22.3089 13 22.5632 13 22.8284V23C13 23.5523 13.4477 24 14 24H26C26.5523 24 27 23.5523 27 23V22.8284C27 22.5632 26.8946 22.3089 26.7071 22.1213L25.1716 20.5858C24.4214 19.8356 24 18.8182 24 17.7574V16C24 13.7909 22.2091 12 20 12Z" fill="white"/>
</svg>
