<svg width="41" height="40" viewBox="0 0 41 40" fill="none" xmlns="http://www.w3.org/2000/svg">
<path d="M20.375 10.0742C20.0414 10.0742 19.7711 9.80393 19.7711 9.47034V4.32424C19.7711 3.99065 20.0414 3.72034 20.375 3.72034C20.7086 3.72034 20.9789 3.99065 20.9789 4.32424V9.47034C20.9789 9.80393 20.7086 10.0742 20.375 10.0742Z" fill="#F8D7E3"/>
<path d="M25.9172 22.525L25.043 20.9711L20.375 14.7523L15.707 20.9711L14.8328 22.525L20.375 28.5062L25.9172 22.525Z" fill="#FFCBDE"/>
<path d="M14.8328 22.525L5.00311 40H9.72499L20.3758 28.5063L14.8336 22.525H14.8328Z" fill="#FFB1CE"/>
<path d="M20.375 28.5063L31.0258 40H35.7477L25.918 22.525L20.3758 28.5063H20.375Z" fill="#FFB1CE"/>
<path d="M9.72424 40H31.0258L20.375 28.5062L9.72424 40Z" fill="#FF92BA"/>
<path d="M10.375 0H30.375V2.83516H10.375V0Z" fill="#F8D7E3"/>
<path d="M27.375 0H30.5945V2.83516H27.375V0Z" fill="#F5C8D9"/>
<path d="M20.375 5.93435C19.0594 5.93435 17.993 4.86794 17.993 3.55232V2.83435H22.757V3.55232C22.757 4.86794 21.6906 5.93435 20.375 5.93435Z" fill="#DB306E"/>
<path d="M24.3086 17.1672V11.7946C24.3086 9.6219 22.5477 7.86096 20.375 7.86096C18.2023 7.86096 16.4414 9.6219 16.4414 11.7946V17.0914L24.3086 17.1672Z" fill="#DB306E"/>
<path d="M20.375 7.86096C19.8016 7.86096 19.257 7.98518 18.7656 8.20549C20.1352 8.82034 21.0898 10.1953 21.0898 11.7946V17.136L24.3094 17.1672V11.7946C24.3094 9.6219 22.5484 7.86096 20.3758 7.86096H20.375Z" fill="#D92365"/>
<path d="M15.2828 17.1875C15.2828 15.8422 17.5625 14.7523 20.375 14.7523C23.1875 14.7523 25.4672 15.8429 25.4672 17.1875V19.7633C25.4672 18.4179 23.1875 17.3281 20.375 17.3281C17.5625 17.3281 15.2828 18.4187 15.2828 19.7633V17.1875Z" fill="#DF487F"/>
<path d="M20.375 22.1828C23.1874 22.1828 25.4672 21.0926 25.4672 19.7477C25.4672 18.4028 23.1874 17.3125 20.375 17.3125C17.5627 17.3125 15.2828 18.4028 15.2828 19.7477C15.2828 21.0926 17.5627 22.1828 20.375 22.1828Z" fill="#E87DA4"/>
</svg>
