<svg width="14" height="14" viewBox="0 0 14 14" fill="none" xmlns="http://www.w3.org/2000/svg">
<path d="M9.04167 1.75C7.59191 1.75 6.41667 2.92542 6.41667 4.375C6.41667 5.82458 7.59191 7 9.04167 7C10.4914 7 11.6667 5.82458 11.6667 4.375C11.6667 2.92542 10.4914 1.75 9.04167 1.75ZM7.03646 7.784C5.96657 8.22558 5.25 9.30767 5.25 10.5V11.6667C5.25 11.9887 5.51116 12.25 5.83333 12.25H12.25C12.5722 12.25 12.8333 11.9887 12.8333 11.6667V10.5C12.8333 9.33567 12.1128 8.27984 11.0469 7.82017C10.8968 7.75542 10.722 7.75367 10.5729 7.82017C10.0568 8.05175 9.55395 8.16667 9.04167 8.16667C8.53113 8.16667 8.02655 8.04533 7.49222 7.80208C7.34527 7.735 7.18568 7.72216 7.03646 7.784Z" fill="black"/>
<path d="M4.66669 2.33334C3.37805 2.33334 2.33335 3.37809 2.33335 4.66667C2.33335 5.95525 3.37805 7 4.66669 7C5.1505 7 5.59215 6.86702 5.98082 6.59519C4.98402 5.11352 5.1253 3.69484 5.66856 2.55209C5.35829 2.40509 5.0175 2.33334 4.66669 2.33334ZM2.95315 7.784C1.88325 8.22558 1.16669 9.30767 1.16669 10.5V11.6667C1.16669 11.9887 1.42785 12.25 1.75002 12.25L4.17249 12.2512C4.03599 11.8078 4.07612 11.0892 4.0851 10.5076C4.10406 9.27267 4.61477 8.39182 4.8148 8.15966C4.44718 8.15674 4.006 8.0675 3.68231 7.92983C3.60415 7.89658 3.55876 7.87034 3.4089 7.80209C3.26196 7.735 3.10236 7.72217 2.95315 7.784Z" fill="black" fill-opacity="0.4"/>
</svg>
