<svg width="18" height="16" viewBox="0 0 18 16" fill="none" xmlns="http://www.w3.org/2000/svg">
<g id="Group">
<path id="Primary" d="M11.9167 0.5C9.84558 0.5 8.16667 2.17917 8.16667 4.25C8.16667 6.32083 9.84558 8 11.9167 8C13.9878 8 15.6667 6.32083 15.6667 4.25C15.6667 2.17917 13.9878 0.5 11.9167 0.5ZM11.9167 2.16667C13.0673 2.16667 14 3.09917 14 4.25C14 5.40083 13.0673 6.33333 11.9167 6.33333C10.7661 6.33333 9.83333 5.40083 9.83333 4.25C9.83333 3.09917 10.7661 2.16667 11.9167 2.16667ZM9.05208 9.12C7.52367 9.75083 6.5 11.2967 6.5 13V14.6667C6.5 15.1267 6.87308 15.5 7.33333 15.5H16.5C16.9602 15.5 17.3333 15.1267 17.3333 14.6667V13C17.3333 11.3367 16.304 9.82834 14.7812 9.17167C14.5669 9.07917 14.3172 9.07667 14.1042 9.17167C13.3668 9.50251 12.6485 9.66667 11.9167 9.66667C11.1873 9.66667 10.4665 9.49333 9.70317 9.14583C9.49325 9.05 9.26525 9.03166 9.05208 9.12ZM9.3725 10.825C10.1598 11.1233 11.1091 11.3333 11.9167 11.3333C12.7179 11.3333 13.6279 11.1375 14.3993 10.8525C15.1515 11.2808 15.6667 12.0825 15.6667 13V13.8333H8.16667V13C8.16667 12.0292 8.71325 11.2108 9.3725 10.825Z" fill="white"/>
<path id="Secondary" d="M5.66699 1.3335C3.82608 1.3335 2.33366 2.826 2.33366 4.66683C2.33366 6.50766 3.82608 8.00016 5.66699 8.00016C6.35816 8.00016 7.01283 7.78933 7.56799 7.401C7.94524 7.13767 8.03999 6.60683 7.77633 6.22933C7.51266 5.85183 7.00774 5.7835 6.63049 6.04683C6.35308 6.241 6.01383 6.3335 5.66699 6.3335C4.74649 6.3335 4.00033 5.58766 4.00033 4.66683C4.00033 3.746 4.74649 3.00016 5.66699 3.00016C5.93883 3.00016 6.18749 3.06016 6.42216 3.18266C6.83049 3.39516 7.35566 3.25184 7.56799 2.84351C7.78041 2.43601 7.61174 1.91015 7.20349 1.69849C6.73258 1.45349 6.20816 1.3335 5.66699 1.3335ZM3.21908 9.12016C1.69066 9.75099 0.666992 11.2968 0.666992 13.0002V14.6668C0.666992 15.1268 1.04008 15.5002 1.50033 15.5002H4.83366C5.29391 15.5002 5.66699 15.1268 5.66699 14.6668C5.66699 14.2068 5.29391 13.8335 4.83366 13.8335H2.33366V13.0002C2.33366 12.0635 2.88924 11.2035 3.52782 10.8252C4.12841 11.0785 4.76374 11.2702 5.32874 11.3177C5.78741 11.3568 6.20099 11.011 6.23991 10.5518C6.27883 10.0935 5.94741 9.70518 5.48883 9.66602C5.12299 9.63518 4.72316 9.52516 4.26074 9.32849C4.14908 9.28099 4.08424 9.2435 3.87016 9.146C3.66024 9.05016 3.43224 9.03183 3.21908 9.12016Z" fill="white" fill-opacity="0.4"/>
</g>
</svg>
