<svg width="25" height="24" viewBox="0 0 25 24" fill="none" xmlns="http://www.w3.org/2000/svg">
<path d="M8.5938 13.3124C5.9795 14.0269 4.125 16.3001 4.125 18.9999V20.9999C4.125 21.5522 4.5727 21.9999 5.125 21.9999H19.125C19.6773 21.9999 20.125 21.5522 20.125 20.9999V18.9999C20.125 16.3001 18.2705 14.0269 15.6562 13.3124C15.4321 13.2511 15.2119 13.2794 15 13.3749C14.0845 13.7875 13.1099 13.9999 12.125 13.9999C11.1401 13.9999 10.1655 13.7875 9.25 13.3749C9.0381 13.2794 8.8179 13.2511 8.5938 13.3124ZM9 15.3124C10.0098 15.6943 11.0447 15.9999 12.125 15.9999C13.2053 15.9999 14.2402 15.6943 15.25 15.3124C16.9534 15.8284 18.125 17.2663 18.125 18.9999V19.9999H6.125V18.9999C6.125 17.2663 7.2966 15.8284 9 15.3124Z" fill="#64748B" fill-opacity="0.4"/>
<path d="M12.125 2C9.3636 2 7.125 4.2386 7.125 7C7.125 9.7614 9.3636 12 12.125 12C14.8864 12 17.125 9.7614 17.125 7C17.125 4.2386 14.8864 2 12.125 2ZM12.125 4C13.7819 4 15.125 5.3431 15.125 7C15.125 8.6569 13.7819 10 12.125 10C10.4681 10 9.125 8.6569 9.125 7C9.125 5.3431 10.4681 4 12.125 4Z" fill="#64748B"/>
</svg>
