<svg width="14" height="14" viewBox="0 0 14 14" fill="none" xmlns="http://www.w3.org/2000/svg">
<path d="M4.94011 7.76559C3.4151 8.18238 2.33331 9.50842 2.33331 11.0833V12.25C2.33331 12.5721 2.59447 12.8333 2.91665 12.8333H11.0833C11.4055 12.8333 11.6666 12.5721 11.6666 12.25V11.0833C11.6666 9.50842 10.5849 8.18238 9.05985 7.76559C8.92912 7.72983 8.80067 7.74634 8.67706 7.80205C8.14302 8.04273 7.5745 8.16663 6.99998 8.16663C6.42545 8.16663 5.85694 8.04273 5.3229 7.80205C5.19929 7.74634 5.07084 7.72983 4.94011 7.76559Z" fill="#4A43EC" fill-opacity="0.4"/>
<path d="M6.99998 1.16667C5.38916 1.16667 4.08331 2.47252 4.08331 4.08333C4.08331 5.69415 5.38916 7 6.99998 7C8.6108 7 9.91665 5.69415 9.91665 4.08333C9.91665 2.47252 8.6108 1.16667 6.99998 1.16667Z" fill="#4A43EC"/>
</svg>
