<svg width="41" height="40" viewBox="0 0 41 40" fill="none" xmlns="http://www.w3.org/2000/svg">
<g clip-path="url(#clip0_1_1167)">
<path d="M32.8859 30.5605C32.7352 31.7589 32.2445 32.8697 31.4562 33.7934C30.5891 34.8094 29.443 35.5029 28.143 35.8012C27.6844 35.9053 27.2227 35.9577 26.7625 35.9577C25.9172 35.9577 25.0797 35.7816 24.2891 35.4333C21.2234 34.083 17.7125 34.0705 14.6391 35.3973L14.557 35.4333C13.3359 35.971 12.0031 36.0986 10.7023 35.8004C9.40234 35.5029 8.25625 34.8086 7.38984 33.7934C6.60156 32.8681 6.11172 31.7573 5.96094 30.5605C6.07578 29.6603 6.38828 28.7984 6.88594 28.0204L11.2234 21.2407C13.0227 18.4274 16.0883 16.7476 19.4234 16.7476C22.7586 16.7476 25.8234 18.4274 27.6234 21.2407L31.9609 28.0196C32.4586 28.7984 32.7711 29.6611 32.8859 30.5605Z" fill="#FF8D5C"/>
<path d="M32.9211 30.5724C32.8297 31.9063 32.3227 34.353 31.4563 35.3683C30.5891 36.3843 29.443 37.0787 28.143 37.3761C27.6844 37.4802 27.2227 37.5327 26.7625 37.5327C25.9172 37.5327 25.0797 37.3566 24.2891 37.0082C21.2235 35.6579 17.7125 35.6454 14.6391 36.9722L14.557 37.0082C13.336 37.546 12.0031 37.6736 10.7024 37.3753C9.40236 37.0779 8.25626 36.3836 7.38986 35.3683C6.52345 34.3515 6.01721 31.9047 5.9258 30.5716C5.89768 30.1614 6.19844 29.4 6.25 29C6.40078 30.1969 6.60158 31.6628 7.38986 32.5881C8.25627 33.6033 9.40236 34.2976 10.7024 34.5951C12.0031 34.8933 13.336 34.7657 14.5571 34.228L14.6391 34.192C17.7125 32.8652 21.2235 32.8777 24.2891 34.228C25.0797 34.5763 25.9172 34.7524 26.7625 34.7524C27.2227 34.7524 27.6844 34.7 28.143 34.5959C29.443 34.2976 30.5891 33.6041 31.4563 32.5881C32.2446 31.6644 32.3242 30.1977 32.475 29C32.5266 29.3992 32.9492 30.1622 32.9211 30.5724Z" fill="#FFBA9C"/>
<path d="M10.8141 18.2982C10.325 19.6939 9.34456 20.735 8.05393 21.2321C7.52737 21.4356 6.98284 21.5319 6.43909 21.5319C4.77893 21.5319 3.13284 20.6309 2.06018 19.1217C2.94768 19.7495 3.97502 20.0986 5.00862 20.0986C5.55159 20.0986 6.0969 20.0016 6.62346 19.7988C7.91409 19.3018 8.89377 18.2599 9.38362 16.865C9.84924 15.5374 9.81174 14.0384 9.27581 12.6442C9.07815 12.1299 8.82034 11.6509 8.51252 11.2172C9.48596 11.9029 10.2531 12.8986 10.7063 14.0775C11.2422 15.4716 11.2805 16.9706 10.8141 18.2982Z" fill="#FFBA9C"/>
<path d="M9.38361 16.8649C8.89377 18.2599 7.91408 19.3017 6.62346 19.7988C6.0969 20.0015 5.55158 20.0986 5.00861 20.0986C3.97502 20.0986 2.94768 19.7495 2.06018 19.1217C1.75783 18.6959 1.5008 18.2207 1.30236 17.7049C0.171895 14.7577 1.36174 11.5491 3.95314 10.551C5.24143 10.0532 6.66564 10.1683 7.96174 10.8743C8.15158 10.9777 8.33596 11.0927 8.51252 11.2172C8.82033 11.6509 9.07814 12.1299 9.2758 12.6442C9.81174 14.0383 9.84924 15.5373 9.38361 16.8649Z" fill="#FF8D5C"/>
<path d="M22.3453 9.21333C22.3453 11.8067 21.0492 14.0611 19.1578 15.1765C18.3516 15.6525 17.4375 15.921 16.4695 15.921C16.2375 15.921 16.0078 15.9053 15.7828 15.8748C12.8656 15.4857 10.5945 12.6466 10.5945 9.21333C10.5945 8.9918 10.6039 8.77263 10.6227 8.55658C10.9133 11.9476 13.425 14.6067 16.4695 14.6067C19.5141 14.6067 22.0266 11.9476 22.3172 8.55658C22.3359 8.77263 22.3453 8.9918 22.3453 9.21333Z" fill="#FFBA9C"/>
<path d="M22.3172 8.55655C22.0266 11.9475 19.5149 14.6066 16.4696 14.6066C13.4242 14.6066 10.9133 11.9475 10.6227 8.55655C10.9125 5.16477 13.4242 2.50488 16.4696 2.50488C19.5149 2.50488 22.0274 5.16477 22.3172 8.55655Z" fill="#FF8D5C"/>
<path d="M32.4438 15.6658C31.3219 17.0137 29.7406 17.8137 28.1305 17.8137C27.6242 17.8137 27.1156 17.7339 26.6172 17.5687C23.7938 16.6278 22.3649 13.247 23.4313 10.0313C23.8797 8.6787 24.7094 7.52566 25.793 6.73584C25.2594 7.3785 24.8399 8.13388 24.5641 8.96519C23.4977 12.1808 24.9266 15.5617 27.75 16.5026C28.2485 16.6685 28.757 16.7476 29.2633 16.7476C30.386 16.7476 31.4945 16.3585 32.4438 15.6658Z" fill="#FFBA9C"/>
<path d="M33.6742 13.4426C33.3938 14.2857 32.9695 15.0356 32.4438 15.6657C31.4945 16.3585 30.386 16.7475 29.2633 16.7475C28.757 16.7475 28.2485 16.6685 27.75 16.5025C24.9266 15.5616 23.4977 12.1808 24.5641 8.96515C24.8399 8.13384 25.2594 7.37846 25.793 6.7358C25.9305 6.6356 26.0719 6.54089 26.2172 6.45243C27.5688 5.63208 29.0852 5.43717 30.4875 5.90449C31.8891 6.37103 32.9875 7.43639 33.5805 8.9041C34.1469 10.3061 34.1797 11.9178 33.6742 13.4426Z" fill="#FF8D5C"/>
<path d="M39.307 24.8031C38.1313 26.1503 36.5125 26.8775 34.9508 26.8775C33.9672 26.8775 33.0055 26.5894 32.1922 25.9851C29.9609 24.3303 29.6688 20.9197 31.5406 18.3835C32.0703 17.6665 32.7172 17.0951 33.4234 16.6826C33.3078 16.8141 33.1969 16.9518 33.0906 17.0959C31.2188 19.6328 31.5117 23.0426 33.7422 24.6974C34.5563 25.3017 35.5172 25.5898 36.5016 25.5898C37.4859 25.5898 38.4258 25.3197 39.307 24.8031Z" fill="#FFBA9C"/>
<path d="M39.6422 24.3883C39.5359 24.5323 39.4242 24.6708 39.307 24.8031C38.4258 25.3198 37.4531 25.5898 36.5015 25.5898C35.55 25.5898 34.5562 25.3018 33.7422 24.6975C31.5117 23.0427 31.2187 19.6329 33.0906 17.0959C33.1969 16.9519 33.3078 16.8141 33.4234 16.6826C35.2148 15.6321 37.3867 15.5984 38.989 16.7851H38.9906C41.2211 18.4415 41.514 21.8513 39.6422 24.3883Z" fill="#FF8D5C"/>
</g>
<defs>
<clipPath id="clip0_1_1167">
<rect width="40" height="40" fill="white" transform="translate(0.875)"/>
</clipPath>
</defs>
</svg>
