<svg width="20" height="20" viewBox="0 0 20 20" fill="none" xmlns="http://www.w3.org/2000/svg">
<path d="M10.0001 1.66663C5.39775 1.66663 1.66675 5.39746 1.66675 9.99996C1.66675 14.6025 5.39775 18.3333 10.0001 18.3333C14.6026 18.3333 18.3334 14.6025 18.3334 9.99996C18.3334 5.39746 14.6026 1.66663 10.0001 1.66663ZM10.0001 3.33329C13.6817 3.33329 16.6667 6.31829 16.6667 9.99996C16.6667 13.6816 13.6817 16.6666 10.0001 16.6666C6.31816 16.6666 3.33341 13.6816 3.33341 9.99996C3.33341 6.31829 6.31816 3.33329 10.0001 3.33329Z" fill="black" fill-opacity="0.4"/>
<path fill-rule="evenodd" clip-rule="evenodd" d="M10.8335 6.66659C10.8335 6.20635 10.4604 5.83325 10.0002 5.83325C9.53993 5.83325 9.16683 6.20635 9.16683 6.66659V9.16659H6.66683C6.20659 9.16659 5.8335 9.53968 5.8335 9.99992C5.8335 10.4602 6.20659 10.8333 6.66683 10.8333H9.16683V13.3333C9.16683 13.7935 9.53993 14.1666 10.0002 14.1666C10.4604 14.1666 10.8335 13.7935 10.8335 13.3333V10.8333H13.3335C13.7937 10.8333 14.1668 10.4602 14.1668 9.99992C14.1668 9.53968 13.7937 9.16659 13.3335 9.16659H10.8335V6.66659Z" fill="black"/>
</svg>
