<svg width="40" height="40" viewBox="0 0 40 40" fill="none" xmlns="http://www.w3.org/2000/svg">
<path d="M20.0007 3.3335C10.796 3.3335 3.33398 10.7952 3.33398 20.0002C3.33398 29.2052 10.796 36.6668 20.0007 36.6668C29.2057 36.6668 36.6673 29.2052 36.6673 20.0002C36.6673 10.7952 29.2057 3.3335 20.0007 3.3335Z" fill="#F58025" fill-opacity="0.4"/>
<path fill-rule="evenodd" clip-rule="evenodd" d="M21.668 13.3337C21.668 12.4132 20.9218 11.667 20.0013 11.667C19.0808 11.667 18.3346 12.4132 18.3346 13.3337V18.3337H13.3346C12.4142 18.3337 11.668 19.0799 11.668 20.0003C11.668 20.9208 12.4142 21.667 13.3346 21.667H18.3346V26.667C18.3346 27.5875 19.0808 28.3337 20.0013 28.3337C20.9218 28.3337 21.668 27.5875 21.668 26.667V21.667H26.668C27.5884 21.667 28.3346 20.9208 28.3346 20.0003C28.3346 19.0799 27.5884 18.3337 26.668 18.3337H21.668V13.3337Z" fill="#F58025"/>
</svg>
