<svg width="20" height="20" viewBox="0 0 20 20" fill="none" xmlns="http://www.w3.org/2000/svg">
<path d="M9.6875 1.73419C8.955 2.04669 4.55999 3.92252 3.82833 4.23502C3.52083 4.36586 3.33333 4.65586 3.33333 4.99003C3.33333 8.64003 3.47916 10.2733 4.14083 12.1542C5.00666 14.6167 6.70667 16.5792 9.58333 18.2234C9.83917 18.37 10.1608 18.37 10.4167 18.2234C13.3192 16.5642 15.0267 14.6083 15.885 12.1542C16.5383 10.2867 16.6667 8.73336 16.6667 4.99003C16.6667 4.65753 16.4775 4.36669 16.1717 4.23502L10.365 1.73419C10.155 1.64419 9.8975 1.64419 9.6875 1.73419ZM10 3.37501L14.9967 5.5442C15.0692 11.5234 13.8975 14.1442 10.0075 16.5284C6.01667 14.0459 4.95667 11.3967 4.99751 5.55086C6.13334 5.06586 9.03917 3.78501 10 3.37501Z" fill="black" fill-opacity="0.4"/>
<path d="M10 6.66669C9.0795 6.66669 8.33333 7.41252 8.33333 8.33335C8.33333 8.92502 8.70233 9.3392 9.16667 9.63503V11.6667C9.16667 12.1267 9.53975 12.5 10 12.5C10.4602 12.5 10.8333 12.1267 10.8333 11.6667V9.63503C11.2977 9.34003 11.6667 8.92502 11.6667 8.33335C11.6667 7.41252 10.9205 6.66669 10 6.66669Z" fill="black"/>
</svg>
