<svg width="20" height="20" viewBox="0 0 20 20" fill="none" xmlns="http://www.w3.org/2000/svg">
<path fill-rule="evenodd" clip-rule="evenodd" d="M5.45436 9.24245H8.48465C8.9392 9.24245 9.24223 8.93941 9.24223 8.48487V5.45457C9.24223 5.00003 8.9392 4.69699 8.48465 4.69699H5.45436C4.99982 4.69699 4.69678 5.00003 4.69678 5.45457V8.48487C4.69678 8.93941 4.99982 9.24245 5.45436 9.24245ZM7.7271 7.72729H6.21194V6.21212H7.7271V7.72729ZM5.45436 15.303H8.48465C8.9392 15.303 9.24223 15 9.24223 14.5455V11.5152C9.24223 11.0606 8.9392 10.7576 8.48465 10.7576H5.45436C4.99982 10.7576 4.69678 11.0606 4.69678 11.5152V14.5455C4.69678 15 4.99982 15.303 5.45436 15.303ZM7.7271 13.7879H6.21194V12.2727H7.7271V13.7879ZM14.5454 9.24245H11.5151C11.0606 9.24245 10.7576 8.93941 10.7576 8.48487V5.45457C10.7576 5.00003 11.0606 4.69699 11.5151 4.69699H14.5454C15 4.69699 15.303 5.00003 15.303 5.45457V8.48487C15.303 8.93941 15 9.24245 14.5454 9.24245ZM12.2727 7.72729H13.7879V6.21212H12.2727V7.72729ZM10.7576 12.2727C10.7576 12.7273 11.0606 13.0303 11.5151 13.0303C11.9697 13.0303 12.2727 12.7273 12.2727 12.2727V11.5152C12.2727 11.0606 11.9697 10.7576 11.5151 10.7576C11.0606 10.7576 10.7576 11.0606 10.7576 11.5152V12.2727ZM14.5453 12.2727H13.7877C13.3331 12.2727 13.0301 11.9697 13.0301 11.5152C13.0301 11.0606 13.3331 10.7576 13.7877 10.7576H14.5453C14.9998 10.7576 15.3029 11.0606 15.3029 11.5152C15.3029 11.9697 14.9998 12.2727 14.5453 12.2727ZM12.2728 15.303H14.5455C15.0001 15.303 15.3031 15 15.3031 14.5455C15.3031 14.0909 15.0001 13.7879 14.5455 13.7879H12.2728C11.8183 13.7879 11.5152 14.0909 11.5152 14.5455C11.5152 15 11.8183 15.303 12.2728 15.303Z" fill="#4A43EC" fill-opacity="0.4"/>
<path fill-rule="evenodd" clip-rule="evenodd" d="M1.6665 6.9697C1.6665 7.42424 1.96954 7.72728 2.42409 7.72728C2.87863 7.72728 3.18167 7.42424 3.18164 6.96973V3.93943C3.18164 3.48489 3.48467 3.18185 3.93922 3.18185H6.96951C7.42406 3.18185 7.72709 2.87881 7.72709 2.42427C7.72709 1.96973 7.42406 1.66669 6.96951 1.66669H3.93922C2.65134 1.66669 1.6665 2.65152 1.6665 3.9394V6.9697ZM16.8178 6.9697C16.8178 7.42424 17.1209 7.72728 17.5754 7.72728C18.03 7.72728 18.333 7.42424 18.333 6.9697V3.9394C18.333 2.65152 17.3481 1.66669 16.0603 1.66669H13.03C12.5754 1.66669 12.2724 1.9697 12.2724 2.42424C12.2724 2.87878 12.5754 3.18182 13.03 3.18182H16.0603C16.5148 3.18182 16.8178 3.48486 16.8178 3.9394V6.9697ZM6.96951 18.3334H3.93922C2.65134 18.3334 1.6665 17.3485 1.6665 16.0606V13.0303C1.6665 12.5758 1.96954 12.2728 2.42409 12.2728C2.87863 12.2728 3.18167 12.5758 3.18167 13.0303V16.0606C3.18167 16.5152 3.48471 16.8182 3.93925 16.8182H6.96954C7.42409 16.8182 7.72712 17.1213 7.72712 17.5758C7.72709 18.0303 7.42406 18.3334 6.96951 18.3334ZM13.03 18.3333H16.0603C17.3481 18.3333 18.333 17.3484 18.333 16.0605V13.0302C18.333 12.5757 18.03 12.2727 17.5754 12.2727C17.1209 12.2727 16.8178 12.5757 16.8178 13.0302V16.0605C16.8178 16.5151 16.5148 16.8181 16.0603 16.8181H13.03C12.5754 16.8181 12.2724 17.1212 12.2724 17.5757C12.2724 18.0302 12.5754 18.3333 13.03 18.3333Z" fill="#4A43EC"/>
</svg>
