<svg width="20" height="20" viewBox="0 0 20 20" fill="none" xmlns="http://www.w3.org/2000/svg">
<path fill-rule="evenodd" clip-rule="evenodd" d="M5.45485 9.24223H8.48514C8.93968 9.24223 9.24272 8.9392 9.24272 8.48465V5.45436C9.24272 4.99982 8.93968 4.69678 8.48514 4.69678H5.45485C5.0003 4.69678 4.69727 4.99982 4.69727 5.45436V8.48465C4.69727 8.9392 5.0003 9.24223 5.45485 9.24223ZM7.72759 7.72707H6.21243V6.21191H7.72759V7.72707ZM5.45485 15.3028H8.48514C8.93968 15.3028 9.24272 14.9998 9.24272 14.5452V11.5149C9.24272 11.0604 8.93968 10.7574 8.48514 10.7574H5.45485C5.0003 10.7574 4.69727 11.0604 4.69727 11.5149V14.5452C4.69727 14.9998 5.0003 15.3028 5.45485 15.3028ZM7.72759 13.7877H6.21243V12.2725H7.72759V13.7877ZM14.5459 9.24223H11.5156C11.0611 9.24223 10.7581 8.9392 10.7581 8.48465V5.45436C10.7581 4.99982 11.0611 4.69678 11.5156 4.69678H14.5459C15.0005 4.69678 15.3035 4.99982 15.3035 5.45436V8.48465C15.3035 8.9392 15.0005 9.24223 14.5459 9.24223ZM12.2732 7.72707H13.7884V6.21191H12.2732V7.72707ZM10.7581 12.2725C10.7581 12.7271 11.0611 13.0301 11.5156 13.0301C11.9702 13.0301 12.2732 12.7271 12.2732 12.2725V11.5149C12.2732 11.0604 11.9702 10.7574 11.5156 10.7574C11.0611 10.7574 10.7581 11.0604 10.7581 11.5149V12.2725ZM14.5458 12.2725H13.7882C13.3336 12.2725 13.0306 11.9695 13.0306 11.5149C13.0306 11.0604 13.3336 10.7574 13.7882 10.7574H14.5458C15.0003 10.7574 15.3033 11.0604 15.3033 11.5149C15.3033 11.9695 15.0003 12.2725 14.5458 12.2725ZM12.2733 15.3028H14.546C15.0005 15.3028 15.3036 14.9998 15.3036 14.5452C15.3036 14.0907 15.0005 13.7877 14.546 13.7877H12.2733C11.8187 13.7877 11.5157 14.0907 11.5157 14.5452C11.5157 14.9998 11.8187 15.3028 12.2733 15.3028Z" fill="#F58025" fill-opacity="0.4"/>
<path fill-rule="evenodd" clip-rule="evenodd" d="M1.66699 6.96951C1.66699 7.42406 1.97003 7.72709 2.42457 7.72709C2.87912 7.72709 3.18216 7.42405 3.18212 6.96954V3.93925C3.18212 3.48471 3.48516 3.18167 3.93971 3.18167H6.97C7.42454 3.18167 7.72758 2.87863 7.72758 2.42409C7.72758 1.96954 7.42454 1.6665 6.97 1.6665H3.93971C2.65183 1.6665 1.66699 2.65134 1.66699 3.93922V6.96951ZM16.8183 6.96951C16.8183 7.42406 17.1214 7.72709 17.5759 7.72709C18.0304 7.72709 18.3335 7.42406 18.3335 6.96951V3.93922C18.3335 2.65134 17.3486 1.6665 16.0607 1.6665H13.0304C12.5759 1.6665 12.2729 1.96951 12.2729 2.42405C12.2729 2.8786 12.5759 3.18164 13.0304 3.18164H16.0607C16.5153 3.18164 16.8183 3.48467 16.8183 3.93922V6.96951ZM6.97 18.3332H3.93971C2.65183 18.3332 1.66699 17.3483 1.66699 16.0605V13.0302C1.66699 12.5756 1.97003 12.2726 2.42457 12.2726C2.87912 12.2726 3.18216 12.5756 3.18216 13.0302V16.0605C3.18216 16.515 3.48519 16.818 3.93974 16.818H6.97003C7.42457 16.818 7.72761 17.1211 7.72761 17.5756C7.72758 18.0301 7.42454 18.3332 6.97 18.3332ZM13.0304 18.3331H16.0607C17.3486 18.3331 18.3335 17.3483 18.3335 16.0604V13.0301C18.3335 12.5755 18.0304 12.2725 17.5759 12.2725C17.1214 12.2725 16.8183 12.5755 16.8183 13.0301V16.0604C16.8183 16.5149 16.5153 16.8179 16.0607 16.8179H13.0304C12.5759 16.8179 12.2729 17.121 12.2729 17.5755C12.2729 18.0301 12.5759 18.3331 13.0304 18.3331Z" fill="#F58025"/>
</svg>
