<svg width="40" height="40" viewBox="0 0 40 40" fill="none" xmlns="http://www.w3.org/2000/svg">
<g clip-path="url(#clip0_57_5443)">
<path d="M36.9208 14.9275C36.7305 14.342 36.2244 13.9152 35.6152 13.8267L25.8276 12.4045L21.4504 3.5354C21.1779 2.98332 20.6156 2.63385 20 2.63385C19.3844 2.63385 18.8221 2.98332 18.5496 3.53551L14.1724 12.4046L4.38477 13.8268C3.77554 13.9154 3.26929 14.3421 3.07908 14.9276C2.88887 15.5132 3.0476 16.1559 3.4884 16.5856L10.5709 23.4892L8.89888 33.2373C8.79483 33.844 9.04424 34.4573 9.54229 34.8192C10.0405 35.1811 10.7007 35.2289 11.2457 34.9424L20 30.3399L28.7543 34.9424C29.3034 35.2309 29.9633 35.1784 30.4577 34.8192C30.9557 34.4573 31.2053 33.8441 31.1012 33.2373L29.4292 23.4892L36.5116 16.5856C36.9524 16.1558 37.111 15.513 36.9208 14.9275Z" fill="url(#paint0_linear_57_5443)"/>
</g>
<defs>
<linearGradient id="paint0_linear_57_5443" x1="19.9999" y1="35.1281" x2="19.9999" y2="2.63385" gradientUnits="userSpaceOnUse">
<stop stop-color="#FD5900"/>
<stop offset="1" stop-color="#FFDE00"/>
</linearGradient>
<clipPath id="clip0_57_5443">
<rect width="40" height="40" rx="20" fill="white"/>
</clipPath>
</defs>
</svg>
