<svg width="25" height="24" viewBox="0 0 25 24" fill="none" xmlns="http://www.w3.org/2000/svg">
<path fill-rule="evenodd" clip-rule="evenodd" d="M3.5 4C3.5 3.44772 3.94772 3 4.5 3H20.5C21.0523 3 21.5 3.44772 21.5 4C21.5 4.55228 21.0523 5 20.5 5H4.5C3.94772 5 3.5 4.55228 3.5 4Z" fill="white" fill-opacity="0.4"/>
<path fill-rule="evenodd" clip-rule="evenodd" d="M13.5 8C13.5 7.44772 13.0523 7 12.5 7C11.9477 7 11.5 7.44772 11.5 8V17.5857L7.50015 13.5858L6.08594 15L11.7836 20.6977C11.8198 20.7348 11.8588 20.7691 11.9002 20.8003C11.954 20.8407 12.0109 20.8749 12.07 20.9031C12.1826 20.9568 12.3069 20.9901 12.438 20.9981C12.4916 21.0014 12.5455 21.0004 12.599 20.9952C12.663 20.9889 12.7253 20.9765 12.7852 20.9587C12.9397 20.9129 13.0853 20.8291 13.2073 20.7071L18.9144 15L17.5002 13.5858L13.5 17.586V8Z" fill="white"/>
</svg>
