<svg width="25" height="24" viewBox="0 0 25 24" fill="none" xmlns="http://www.w3.org/2000/svg">
<path fill-rule="evenodd" clip-rule="evenodd" d="M7.67449 6H6.5C4.29086 6 2.5 7.79086 2.5 10V18C2.5 20.2091 4.29086 22 6.5 22H18.5C20.7091 22 22.5 20.2091 22.5 18V10C22.5 7.79086 20.7091 6 18.5 6H17.3378C17.443 6.31013 17.5 6.64601 17.5 7C17.5 8.7116 16.1671 10 14.5 10H10.5C8.83841 10 7.5 8.65191 7.5 7C7.5 6.6489 7.56181 6.31241 7.67449 6Z" fill="white" fill-opacity="0.4"/>
<path fill-rule="evenodd" clip-rule="evenodd" d="M11.5 5C11.5 4.45994 11.9399 4 12.5 4C13.0848 4 13.5 4.40889 13.5 5C13.5 5.55228 13.9477 6 14.5 6C15.0802 6 15.5 6.41061 15.5 7C15.5 7.58939 15.0802 8 14.5 8H10.5C9.94679 8 9.5 7.55116 9.5 7C9.5 6.4611 9.97243 6 10.5 6C11.0523 6 11.5 5.55228 11.5 5ZM12.5 2C11.1148 2 9.99696 2.92287 9.62902 4.13293C8.41888 4.50984 7.5 5.64628 7.5 7C7.5 8.65191 8.83841 10 10.5 10H14.5C16.1671 10 17.5 8.7116 17.5 7C17.5 5.60236 16.6112 4.48691 15.3775 4.12471C15.0132 2.8695 13.8758 2 12.5 2ZM14.7745 12.2805C14.9699 12.0858 15.2361 12 15.4914 12C15.7467 12 16.0129 12.0858 16.2083 12.2805C16.5972 12.6707 16.5972 13.3255 16.2083 13.7157L12.2198 17.7081C11.8299 18.0973 11.1758 18.0973 10.7859 17.7081L8.79166 15.7119C8.40278 15.3216 8.40278 14.6669 8.79166 14.2766C9.18154 13.8874 9.83565 13.8874 10.2255 14.2766L11.5029 15.5552L14.7745 12.2805Z" fill="white"/>
</svg>
