<svg width="20" height="20" viewBox="0 0 20 20" fill="none" xmlns="http://www.w3.org/2000/svg">
<path fill-rule="evenodd" clip-rule="evenodd" d="M18.0915 18.0917C17.7665 18.4167 17.2332 18.4167 16.9082 18.0917L14.2082 15.3834C14.6415 15.0334 15.0332 14.6417 15.3832 14.2084L18.0915 16.9084C18.4165 17.2334 18.4165 17.7667 18.0915 18.0917Z" fill="white" fill-opacity="0.4"/>
<path fill-rule="evenodd" clip-rule="evenodd" d="M9.37502 15.4167C12.7117 15.4167 15.4167 12.7117 15.4167 9.37502C15.4167 6.0383 12.7117 3.33335 9.37502 3.33335C6.0383 3.33335 3.33335 6.0383 3.33335 9.37502C3.33335 12.7117 6.0383 15.4167 9.37502 15.4167ZM9.37502 17.0834C13.6322 17.0834 17.0834 13.6322 17.0834 9.37502C17.0834 5.11783 13.6322 1.66669 9.37502 1.66669C5.11783 1.66669 1.66669 5.11783 1.66669 9.37502C1.66669 13.6322 5.11783 17.0834 9.37502 17.0834Z" fill="white"/>
</svg>
