<svg width="40" height="40" viewBox="0 0 40 40" fill="none" xmlns="http://www.w3.org/2000/svg">
<rect width="40" height="40" rx="20" fill="white" fill-opacity="0.1"/>
<path fill-rule="evenodd" clip-rule="evenodd" d="M29.7098 29.71C29.3198 30.1 28.6798 30.1 28.2898 29.71L25.0498 26.46C25.5698 26.04 26.0398 25.57 26.4598 25.05L29.7098 28.29C30.0998 28.68 30.0998 29.32 29.7098 29.71Z" fill="white" fill-opacity="0.4"/>
<path fill-rule="evenodd" clip-rule="evenodd" d="M19.25 26.5C23.2541 26.5 26.5 23.2541 26.5 19.25C26.5 15.2459 23.2541 12 19.25 12C15.2459 12 12 15.2459 12 19.25C12 23.2541 15.2459 26.5 19.25 26.5ZM19.25 28.5C24.3586 28.5 28.5 24.3586 28.5 19.25C28.5 14.1414 24.3586 10 19.25 10C14.1414 10 10 14.1414 10 19.25C10 24.3586 14.1414 28.5 19.25 28.5Z" fill="white"/>
</svg>
