<svg width="34" height="34" viewBox="0 0 34 34" fill="none" xmlns="http://www.w3.org/2000/svg">
<path d="M17.0469 33.5869C26.3235 33.5869 33.8437 26.0682 33.8437 16.7935C33.8437 7.51869 26.3235 0 17.0469 0C7.77021 0 0.25 7.51869 0.25 16.7935C0.25 26.0682 7.77021 33.5869 17.0469 33.5869Z" fill="#9FD198"/>
<path d="M22.4833 0.89978C25.48 9.68403 20.7876 19.233 12.0015 22.2291C8.4832 23.4288 4.66696 23.4288 1.14966 22.2291C4.15359 31.0062 13.7055 35.6864 22.4833 32.682C31.2621 29.6787 35.9433 20.1287 32.9383 11.3527C31.257 6.43954 27.3964 2.58077 22.4833 0.89978Z" fill="#8DC986"/>
<path d="M30.958 26.2075C33.2238 16.7069 28.8592 11.7536 26.0418 8.36687C24.9862 7.09814 24.0523 5.9737 23.5069 4.85441C26.6449 5.01313 28.9612 6.16437 30.9652 7.39085C30.4684 6.65702 29.9137 5.96442 29.3086 5.3182C27.4046 4.41741 25.4058 3.84849 23.1152 3.79181C22.9111 2.92606 22.9462 2.02114 23.2152 1.17292V1.16982C22.8977 1.04408 22.574 0.927621 22.2462 0.821463C21.9297 1.78203 21.8658 2.80856 22.0617 3.80108C20.4752 3.8825 18.9031 4.1515 17.3795 4.60293C15.5466 2.34374 13.8375 0.999766 13.0942 0.466919C12.6509 0.574107 12.2139 0.697785 11.784 0.840015L12.1592 1.07603C12.1819 1.09046 14.1282 2.3324 16.3126 4.93171C15.2456 5.28316 13.6653 5.79746 11.2861 7.35786C8.9852 5.27079 6.29466 5.18525 4.73599 5.36664C4.36179 5.76963 4.00821 6.19013 3.67421 6.62816L3.75152 6.60343C3.79069 6.59106 7.46262 5.47589 10.4119 7.96183C4.50405 12.2493 2.06813 18.3508 1.21973 22.4291C1.43621 23.0372 1.68877 23.6329 1.97432 24.2121C2.08462 23.1526 3.23506 14.3529 11.1593 8.69874C12.5489 10.3457 12.1201 12.0824 11.4366 14.8456C10.4666 18.7682 9.14293 24.1225 12.1881 32.8748C12.5839 32.9943 12.986 33.0995 13.3932 33.1901C10.2831 24.4894 11.3263 19.5824 12.4365 15.0939C13.1138 12.3534 13.6581 10.1478 12.0149 8.11952C14.3209 6.63435 15.9208 6.13654 17.0094 5.79849C22.2338 12.6049 21.8432 28.708 21.6927 32.9028L22.7225 32.6369C22.8534 29.0111 23.4987 12.7997 18.0702 5.49341C19.4753 5.11104 20.9195 4.89254 22.374 4.8441C22.9359 6.24476 24.0141 7.54338 25.2501 9.02855C28.4283 12.8492 32.3847 17.6046 29.6375 27.1825L30.959 26.2106L30.958 26.2075Z" fill="#29991A"/>
</svg>
