<svg width="21" height="20" viewBox="0 0 21 20" fill="none" xmlns="http://www.w3.org/2000/svg">
<path d="M10.5083 2.03467C10.0325 2.0345 9.54671 2.3305 9.25896 2.91967L7.48904 6.56359L3.4547 7.13617C2.15729 7.31667 1.73695 8.58951 2.67387 9.50451L5.58896 12.342L4.91229 16.3245C4.68945 17.6137 5.7587 18.3928 6.91645 17.782C7.36379 17.5453 9.66387 16.3537 10.5083 15.9078L14.1001 17.782C15.2592 18.3928 16.3318 17.6145 16.1043 16.3245L15.4015 12.342L18.3167 9.50451C19.258 8.59284 18.8594 7.32034 17.5619 7.13617L13.5015 6.56359L11.7576 2.91967C11.4703 2.33025 10.984 2.03492 10.5083 2.03467ZM10.5083 4.195L12.2261 7.70884C12.3473 7.95743 12.577 8.11251 12.8508 8.15134L16.755 8.72367L13.918 11.457C13.7194 11.6495 13.6357 11.9137 13.6837 12.1853L14.3605 16.0378L10.8987 14.2162C10.6555 14.0878 10.361 14.0878 10.1179 14.2162C9.68596 14.4437 7.57496 15.5528 6.65612 16.0378L7.30687 12.212C7.35346 11.9412 7.26871 11.6487 7.07262 11.457L4.26154 8.72367L8.13971 8.17734C8.41421 8.13917 8.66879 7.95784 8.79046 7.70884L10.5083 4.195Z" fill="#94A3B8"/>
<path d="M10.5202 4.19482L12.238 7.70867C12.3592 7.95725 12.5889 8.11233 12.8627 8.15116L16.7669 8.7235L13.9299 11.4568C13.7313 11.6493 13.6476 11.9135 13.6956 12.1852L14.3724 16.0377L10.9106 14.216C10.6674 14.0877 10.3729 14.0877 10.1298 14.216C9.69786 14.4435 7.58686 15.5527 6.66802 16.0377L7.31877 12.2118C7.36535 11.941 7.2806 11.6485 7.08452 11.4568L4.27344 8.7235L8.15161 8.17716C8.42611 8.13899 8.68069 7.95767 8.80235 7.70867L10.5202 4.19482Z" fill="#F1F5F9"/>
</svg>
