<svg width="16" height="14" viewBox="0 0 16 14" fill="none" xmlns="http://www.w3.org/2000/svg">
<path d="M2.52845 3C2.29156 3 2.04666 3.12948 1.92388 3.37543C1.73369 3.75521 1.68431 3.86654 1.6109 3.98034C1.50747 4.13985 1.43073 4.20025 1.19384 4.29316C1.13445 4.31632 1.06705 4.34936 0.985638 4.37659C0.421096 4.56461 0.37038 5.34124 0.902224 5.60714C1.26724 5.78996 1.37068 5.83648 1.46477 5.89922C1.54017 5.94921 1.58154 5.99106 1.63159 6.06608C1.69432 6.16012 1.74103 6.26364 1.92388 6.62953C2.16944 7.12143 2.88747 7.12143 3.13303 6.62953C3.31588 6.26364 3.36259 6.16012 3.42532 6.06608C3.47537 5.99106 3.51674 5.94921 3.59214 5.89922C3.68623 5.83648 3.78966 5.78996 4.15535 5.60714C4.64715 5.36119 4.64715 4.64344 4.15535 4.39748C3.78966 4.21467 3.68623 4.16815 3.59214 4.10541C3.51674 4.05542 3.47537 4.01357 3.42532 3.93855C3.36259 3.84451 3.31588 3.74099 3.13303 3.37543C3.01025 3.12948 2.76534 3 2.52845 3Z" fill="white" fill-opacity="0.4"/>
<path d="M12.6557 0.501953C12.4188 0.501953 12.1739 0.631436 12.0511 0.877387C11.7595 1.45986 11.6701 1.65148 11.5507 1.83683C11.3565 2.13718 11.197 2.25691 10.7793 2.42084C10.6845 2.45788 10.5731 2.50347 10.4456 2.54598C9.88106 2.734 9.83034 3.51063 10.3622 3.77654C10.9254 4.05826 11.0802 4.15117 11.2377 4.25629C11.3872 4.35574 11.4719 4.44084 11.5713 4.59001C11.6768 4.74766 11.7695 4.90271 12.0511 5.46636C12.2967 5.95826 13.0147 5.95826 13.2603 5.46636C13.5419 4.90271 13.6353 4.74773 13.7401 4.59001C13.8395 4.44084 13.9249 4.35574 14.0737 4.25629C14.2312 4.15117 14.3867 4.05819 14.9499 3.77654C15.4417 3.53058 15.4417 2.81283 14.9499 2.56688C14.3867 2.28515 14.2312 2.19224 14.0737 2.08712C13.9249 1.98767 13.8395 1.90257 13.7401 1.7534C13.6353 1.59575 13.5419 1.4407 13.2603 0.877387C13.1375 0.631436 12.8926 0.501953 12.6557 0.501953Z" fill="white" fill-opacity="0.75"/>
<path d="M7.86512 6.83398C7.59953 6.83398 7.34128 6.98865 7.23985 7.29265C6.77207 8.69332 6.3897 9.07531 4.98769 9.54198C4.3791 9.74465 4.3791 10.59 4.98769 10.7927C6.3897 11.2593 6.77207 11.6413 7.23985 13.042C7.44204 13.65 8.28819 13.65 8.49105 13.042C8.95817 11.6413 9.34053 11.2593 10.7432 10.7927C11.3511 10.59 11.3511 9.74465 10.7432 9.54198C9.34053 9.07531 8.95817 8.69332 8.49105 7.29265C8.38962 6.98865 8.1307 6.83398 7.86512 6.83398Z" fill="white"/>
</svg>
