<svg width="32" height="32" viewBox="0 0 32 32" fill="none" xmlns="http://www.w3.org/2000/svg">
<path d="M9.99999 4C7.26399 4 4 7.264 4 10C4 12.9093 6.71867 17.9693 9.708 20.9587C9.98267 21.232 10.768 22.0173 11.0413 22.292C14.0307 25.2813 19.0906 28 22 28C24.736 28 28 24.736 28 22C28 19.264 24.736 16 22 16C21.4533 16 20.8906 16.2173 19.8333 16.708C19.736 16.7533 18.9226 17.152 18.708 17.2507C17.22 16.8413 15.204 14.7973 14.7493 13.2507C14.852 13.024 15.2533 12.2493 15.292 12.1667C15.8026 11.084 16 10.5533 16 10C16 7.264 12.736 4 9.99999 4ZM9.99999 6.66667C11.264 6.66667 13.3333 8.736 13.3333 10C13.3333 9.96667 13.1547 10.4493 12.8747 11.0413C12.8373 11.1213 12.3946 11.9787 12.292 12.208C11.9773 12.912 11.9387 13.1333 12.0413 13.6253C12.6013 16.2933 15.7733 19.4813 18.416 19.9587C18.892 20.044 19.0093 20.0013 19.7493 19.6667C19.9573 19.5733 20.8653 19.168 20.9586 19.1253C21.5453 18.852 22.028 18.6667 22 18.6667C23.264 18.6667 25.3333 20.736 25.3333 22C25.3333 23.264 23.264 25.3333 22 25.3333C19.9173 25.3333 15.4946 22.912 12.9586 20.3747C12.684 20.1013 11.8986 19.316 11.6253 19.0413C9.08798 16.5053 6.66666 12.0827 6.66666 10C6.66666 8.736 8.73599 6.66667 9.99999 6.66667Z" fill="#4A43EC" fill-opacity="0.4"/>
<path d="M10.0001 6.66669C11.2641 6.66669 13.3334 8.73602 13.3334 10C13.3334 9.96669 13.1547 10.4494 12.8747 11.0414C12.8374 11.1214 12.3947 11.9787 12.2921 12.208C11.9774 12.912 11.9387 13.1333 12.0414 13.6253C12.6014 16.2933 15.7734 19.4813 18.4161 19.9587C18.8921 20.044 19.0094 20.0014 19.7494 19.6667C19.9574 19.5734 20.8654 19.168 20.9587 19.1253C21.5454 18.852 22.0281 18.6667 22.0001 18.6667C23.2641 18.6667 25.3334 20.736 25.3334 22C25.3334 23.264 23.2641 25.3334 22.0001 25.3334C19.9174 25.3334 15.4947 22.912 12.9587 20.3747C12.6841 20.1014 11.8987 19.316 11.6254 19.0414C9.08807 16.5054 6.66675 12.0827 6.66675 10C6.66675 8.73602 8.73608 6.66669 10.0001 6.66669Z" fill="#4A43EC"/>
</svg>
