<svg width="32" height="32" viewBox="0 0 32 32" fill="none" xmlns="http://www.w3.org/2000/svg">
<path d="M9.99999 4C7.26399 4 4 7.264 4 10C4 12.9093 6.71867 17.9693 9.708 20.9587C9.98267 21.232 10.768 22.0173 11.0413 22.292C14.0307 25.2813 19.0906 28 22 28C24.736 28 28 24.736 28 22C28 19.264 24.736 16 22 16C21.4533 16 20.8906 16.2173 19.8333 16.708C19.736 16.7533 18.9226 17.152 18.708 17.2507C17.22 16.8413 15.204 14.7973 14.7493 13.2507C14.852 13.024 15.2533 12.2493 15.292 12.1667C15.8026 11.084 16 10.5533 16 10C16 7.264 12.736 4 9.99999 4ZM9.99999 6.66667C11.264 6.66667 13.3333 8.736 13.3333 10C13.3333 9.96667 13.1547 10.4493 12.8747 11.0413C12.8373 11.1213 12.3946 11.9787 12.292 12.208C11.9773 12.912 11.9387 13.1333 12.0413 13.6253C12.6013 16.2933 15.7733 19.4813 18.416 19.9587C18.892 20.044 19.0093 20.0013 19.7493 19.6667C19.9573 19.5733 20.8653 19.168 20.9586 19.1253C21.5453 18.852 22.028 18.6667 22 18.6667C23.264 18.6667 25.3333 20.736 25.3333 22C25.3333 23.264 23.264 25.3333 22 25.3333C19.9173 25.3333 15.4946 22.912 12.9586 20.3747C12.684 20.1013 11.8986 19.316 11.6253 19.0413C9.08798 16.5053 6.66666 12.0827 6.66666 10C6.66666 8.736 8.73599 6.66667 9.99999 6.66667Z" fill="#F58025" fill-opacity="0.4"/>
<path d="M9.99983 6.6665C11.2638 6.6665 13.3332 8.73584 13.3332 9.99984C13.3332 9.9665 13.1545 10.4492 12.8745 11.0412C12.8372 11.1212 12.3945 11.9785 12.2918 12.2078C11.9772 12.9118 11.9385 13.1332 12.0412 13.6252C12.6012 16.2932 15.7732 19.4812 18.4158 19.9585C18.8918 20.0438 19.0092 20.0012 19.7492 19.6665C19.9572 19.5732 20.8651 19.1678 20.9585 19.1252C21.5451 18.8518 22.0278 18.6665 21.9998 18.6665C23.2638 18.6665 25.3331 20.7358 25.3331 21.9998C25.3331 23.2638 23.2638 25.3332 21.9998 25.3332C19.9171 25.3332 15.4945 22.9118 12.9585 20.3745C12.6838 20.1012 11.8985 19.3158 11.6252 19.0412C9.08783 16.5052 6.6665 12.0825 6.6665 9.99984C6.6665 8.73584 8.73583 6.6665 9.99983 6.6665Z" fill="#F58025"/>
</svg>
