<svg width="20" height="20" viewBox="0 0 20 20" fill="none" xmlns="http://www.w3.org/2000/svg">
<path d="M4.53167 1.75471C3.9775 1.47753 3.33333 1.88954 3.33333 2.50881V16.6589C3.33333 16.9743 3.52 17.2723 3.80166 17.413L5.46833 18.2453C5.70333 18.3627 5.96334 18.3627 6.19834 18.2453L7.5 17.5953L8.80167 18.2453C9.03667 18.3627 9.29667 18.3627 9.53167 18.2453L10.8333 17.5953L12.135 18.2453C12.37 18.3627 12.63 18.3627 12.865 18.2453L14.1667 17.5953L15.4683 18.2453C16.0225 18.5225 16.6667 18.1097 16.6667 17.4912V3.34117C16.6667 3.02571 16.48 2.72773 16.1983 2.58706L14.5317 1.75471C14.2967 1.63735 14.0367 1.63735 13.8017 1.75471L12.5 2.40477L11.1983 1.75471C10.9633 1.63735 10.7033 1.63735 10.4683 1.75471L9.16667 2.40477L7.86501 1.75471C7.63001 1.63735 7.37 1.63735 7.135 1.75471C6.9725 1.83545 6.27417 2.1842 5.83333 2.40477L4.53167 1.75471ZM7.5 3.44521L8.80167 4.09529C9.03667 4.21265 9.29667 4.21265 9.53167 4.09529L10.8333 3.44521L12.135 4.09529C12.37 4.21265 12.63 4.21265 12.865 4.09529L14.1667 3.44521L15 3.86139V16.1386L14.5317 15.9047C14.2967 15.7874 14.0367 15.7874 13.8017 15.9047L12.5 16.5548L11.1983 15.9047C10.9633 15.7874 10.7033 15.7874 10.4683 15.9047L9.16667 16.5548L7.86501 15.9047C7.63001 15.7874 7.37 15.7874 7.135 15.9047L5.83333 16.5548L5 16.1386V3.86139L5.46833 4.09529C5.70333 4.21265 5.96334 4.21265 6.19834 4.09529C6.36084 4.01372 7.05917 3.66496 7.5 3.44521Z" fill="black" fill-opacity="0.4"/>
<path d="M7.5 5.83337C7.04 5.83337 6.66666 6.20671 6.66666 6.66671C6.66666 7.12671 7.04 7.50004 7.5 7.50004H10C10.46 7.50004 10.8333 7.12671 10.8333 6.66671C10.8333 6.20671 10.46 5.83337 10 5.83337H7.5ZM12.5 5.83337C12.04 5.83337 11.6667 6.20671 11.6667 6.66671C11.6667 7.12671 12.04 7.50004 12.5 7.50004C12.96 7.50004 13.3333 7.12671 13.3333 6.66671C13.3333 6.20671 12.96 5.83337 12.5 5.83337ZM7.5 9.16671C7.04 9.16671 6.66666 9.54004 6.66666 10C6.66666 10.46 7.04 10.8334 7.5 10.8334H10C10.46 10.8334 10.8333 10.46 10.8333 10C10.8333 9.54004 10.46 9.16671 10 9.16671H7.5ZM12.5 9.16671C12.04 9.16671 11.6667 9.54004 11.6667 10C11.6667 10.46 12.04 10.8334 12.5 10.8334C12.96 10.8334 13.3333 10.46 13.3333 10C13.3333 9.54004 12.96 9.16671 12.5 9.16671ZM7.5 12.5C7.04 12.5 6.66666 12.8734 6.66666 13.3334C6.66666 13.7934 7.04 14.1667 7.5 14.1667H10C10.46 14.1667 10.8333 13.7934 10.8333 13.3334C10.8333 12.8734 10.46 12.5 10 12.5H7.5ZM12.5 12.5C12.04 12.5 11.6667 12.8734 11.6667 13.3334C11.6667 13.7934 12.04 14.1667 12.5 14.1667C12.96 14.1667 13.3333 13.7934 13.3333 13.3334C13.3333 12.8734 12.96 12.5 12.5 12.5Z" fill="black"/>
</svg>
