<svg width="40" height="40" viewBox="0 0 40 40" fill="none" xmlns="http://www.w3.org/2000/svg">
<g clip-path="url(#clip0_1_1096)">
<path d="M7.71484 6.25H5.12109V1.94766C5.12109 1.77812 5.25859 1.64062 5.42813 1.64062H7.40781C7.57734 1.64062 7.71484 1.77812 7.71484 1.94766V6.25Z" fill="#CBDBFF"/>
<path d="M8.91018 12.3765C8.35549 11.0773 8.06956 9.67889 8.06956 8.26639V5.78046C8.06956 5.5953 7.91956 5.44452 7.73362 5.44452H5.10002C4.91487 5.44452 4.76409 5.59452 4.76409 5.78046V8.26639C4.76409 9.67889 4.47815 11.0773 3.92346 12.3765C3.08362 14.3453 2.65002 16.4641 2.65002 18.6047V19.3633L4.2594 22.9367L2.65002 27.4265V31.9133L6.41565 32.718L10.1813 31.9133V18.6047C10.1813 16.4641 9.74846 14.3453 8.90784 12.3765H8.91018Z" fill="#4882FF"/>
<path d="M8.91013 12.3765C8.35544 11.0773 8.06951 9.67889 8.06951 8.26639V5.78046C8.06951 5.5953 7.91951 5.44452 7.73357 5.44452H5.65466V8.26561C5.65466 9.67811 5.9406 11.0766 6.49529 12.3758C7.33513 14.3445 7.76873 16.4633 7.76873 18.6039V31.9125L8.97576 32.7172L10.1828 31.9125V18.6039C10.1828 16.4633 9.74998 14.3445 8.90935 12.3758L8.91013 12.3765Z" fill="#3877FF"/>
<path d="M2.65234 19.3633H10.1836V27.4266H2.65234V19.3633Z" fill="#D2E0FF"/>
<path d="M7.76874 19.3633H10.1836V27.4266H7.76874V19.3633Z" fill="#BFD3FF"/>
<path d="M25.6022 16.1653C25.712 15.4785 25.2444 14.8327 24.5576 14.7228C23.8708 14.6129 23.2249 15.0806 23.115 15.7674C23.0052 16.4542 23.4728 17.1 24.1596 17.2099C24.8464 17.3198 25.4923 16.8521 25.6022 16.1653Z" fill="#3575FF"/>
<path d="M36.1304 30.3187V27.943C36.1304 21.6141 31 16.4844 24.6718 16.4844H24.0742C17.7453 16.4844 12.6156 21.6148 12.6156 27.943V30.3187H36.1304Z" fill="#AAC5FF"/>
<path d="M33.7164 27.943V30.3187H36.1312V27.943C36.1312 21.6141 31.0008 16.4844 24.6726 16.4844H24.075C23.7695 16.4844 23.4664 16.4969 23.1664 16.5203C29.0703 16.9836 33.7164 21.9203 33.7164 27.9437V27.943Z" fill="#90B3FF"/>
<path d="M37.9789 31.932L24.0812 32.7367L10.1836 31.932V31.0476C10.1836 29.8406 11.1625 28.8617 12.3695 28.8617H35.7922C36.9992 28.8617 37.9781 29.8406 37.9781 31.0476V31.932H37.9789Z" fill="#3575FF"/>
<path d="M35.7922 28.8617H33.3773C34.5844 28.8617 35.5633 29.8406 35.5633 31.0476V31.932L36.7648 32.7367L37.9781 31.932V31.0476C37.9781 29.8406 36.9992 28.8617 35.7922 28.8617Z" fill="#125DFF"/>
<path d="M10.1836 33.7813C9.85002 33.7813 9.57971 33.511 9.57971 33.1774V21.0235C9.57971 20.6899 9.85002 20.4196 10.1836 20.4196C10.5172 20.4196 10.7875 20.6899 10.7875 21.0235V33.1774C10.7875 33.511 10.5172 33.7813 10.1836 33.7813Z" fill="#C6D8FF"/>
<path d="M5.07267 22.936H4.26095C3.92736 22.936 3.65704 22.6657 3.65704 22.3321C3.65704 21.9985 3.92736 21.7281 4.26095 21.7281H5.07345C5.40704 21.7281 5.67736 21.9985 5.67736 22.3321C5.67736 22.6657 5.40704 22.936 5.07345 22.936H5.07267Z" fill="#B1CAFF"/>
<path d="M6.96484 25.4586H4.26016C3.92656 25.4586 3.65625 25.1883 3.65625 24.8547C3.65625 24.5211 3.92656 24.2508 4.26016 24.2508H6.96484C7.29844 24.2508 7.56875 24.5211 7.56875 24.8547C7.56875 25.1883 7.29844 25.4586 6.96484 25.4586Z" fill="#B1CAFF"/>
<path d="M38.8344 38.3516L36.875 38.0359C35.6328 37.8359 34.3664 37.8359 33.1242 38.0359L31.875 38.2367C30.6328 38.4367 29.3664 38.4367 28.1242 38.2367L26.875 38.0359C25.6328 37.8359 24.3664 37.8359 23.1242 38.0359L21.875 38.2367C20.6328 38.4367 19.3664 38.4367 18.1242 38.2367L16.875 38.0359C15.6328 37.8359 14.3664 37.8359 13.1242 38.0359L11.875 38.2367C10.6328 38.4367 9.36639 38.4367 8.12421 38.2367L6.87499 38.0359C5.6328 37.8359 4.36639 37.8359 3.12421 38.0359L1.16483 38.3516C0.553113 38.45 -0.000793457 37.9781 -0.000793457 37.3586V34.0359C-0.000793457 32.8641 0.949207 31.9133 2.12186 31.9133H37.8773C39.0492 31.9133 40 32.8633 40 34.0359V37.3586C40 37.9781 39.4461 38.45 38.8344 38.3516Z" fill="#F1F5FF"/>
<path d="M37.8774 31.9141H35.4625C36.6344 31.9141 37.5852 32.8641 37.5852 34.0367V37.3594C37.5852 37.6547 37.4578 37.9164 37.2594 38.0984L38.8344 38.3523C39.4461 38.4508 40 37.9789 40 37.3594V34.0367C40 32.8648 39.05 31.9141 37.8774 31.9141Z" fill="#DBE7FF"/>
<path d="M29.9492 35.6953C29.6157 35.6953 29.3453 35.9656 29.3453 36.2992V38.3688C29.7477 38.3914 30.15 38.393 30.5524 38.3734V36.2992C30.5524 35.9656 30.2821 35.6953 29.9485 35.6953H29.9492Z" fill="#DBE7FF"/>
<path d="M10.0508 35.6953C9.71721 35.6953 9.4469 35.9656 9.4469 36.2992V38.3734C9.84924 38.3922 10.2524 38.3906 10.6539 38.3688V36.2992C10.6539 35.9656 10.3836 35.6953 10.05 35.6953H10.0508Z" fill="#DBE7FF"/>
<path d="M20 35.6953C19.6664 35.6953 19.3961 35.9656 19.3961 36.2992V38.3711C19.7985 38.3914 20.2008 38.3914 20.6031 38.3711V36.2992C20.6031 35.9656 20.3328 35.6953 19.9992 35.6953H20Z" fill="#DBE7FF"/>
<path d="M10.1836 21.8289C8.20858 21.8289 6.67498 20.1078 6.90233 18.1453L7.50467 12.9469C7.54608 12.5906 7.84764 12.3211 8.20701 12.3211H12.1617C12.5203 12.3211 12.8226 12.5899 12.864 12.9469L13.4664 18.1453C13.6937 20.107 12.1601 21.8289 10.1851 21.8289H10.1836Z" fill="#F1F5FF"/>
<path d="M13.4648 18.1453L12.8625 12.9469C12.8211 12.5906 12.5195 12.3211 12.1601 12.3211H9.7453C10.1039 12.3211 10.4062 12.5899 10.4476 12.9469L11.05 18.1453C11.2281 19.682 10.325 21.0719 8.97577 21.6016C9.34843 21.7477 9.75546 21.8289 10.1828 21.8289C12.1578 21.8289 13.6914 20.1078 13.4641 18.1453H13.4648Z" fill="#E5EDFF"/>
<path d="M13.214 15.9781H7.15311L6.90233 18.1461C6.67498 20.1078 8.20858 21.8297 10.1836 21.8297C12.1586 21.8297 13.6922 20.1078 13.4648 18.1461L13.214 15.9781Z" fill="#8BB0FF"/>
<path d="M13.4648 18.1453L13.2141 15.9774H10.7992L11.05 18.1453C11.2281 19.682 10.325 21.0719 8.97577 21.6016C9.34843 21.7477 9.75546 21.8289 10.1828 21.8289C12.1578 21.8289 13.6914 20.1078 13.4641 18.1453H13.4648Z" fill="#6A99FF"/>
</g>
<defs>
<clipPath id="clip0_1_1096">
<rect width="40" height="40" fill="white"/>
</clipPath>
</defs>
</svg>
