<svg width="16" height="16" viewBox="0 0 16 16" fill="none" xmlns="http://www.w3.org/2000/svg">
<path d="M3.34015 2.66669C3.1698 2.66669 2.99166 2.72398 2.86165 2.85389C2.6017 3.11437 2.6017 3.55138 2.86165 3.81186L7.04308 7.99619L2.86165 12.1805C2.6017 12.441 2.6017 12.878 2.86165 13.1385C3.12167 13.3983 3.55863 13.3983 3.81866 13.1385L8.00002 8.95417L12.1814 13.1385C12.4414 13.3983 12.8784 13.3983 13.1384 13.1385C13.3983 12.878 13.3983 12.441 13.1384 12.1805L8.95696 7.99619L13.1384 3.81186C13.3983 3.55138 13.3983 3.11437 13.1384 2.85389C13.0084 2.72398 12.8302 2.66669 12.6599 2.66669C12.4895 2.66669 12.3115 2.72398 12.1814 2.85389L8.00002 7.03821L3.81866 2.85389C3.68865 2.72398 3.51051 2.66669 3.34015 2.66669Z" fill="#F45941"/>
</svg>
